<?xml version="1.0" encoding="UTF-8" standalone="no"?>
<!DOCTYPE svg PUBLIC "-//W3C//DTD SVG 1.1//EN" "http://www.w3.org/Graphics/SVG/1.1/DTD/svg11.dtd">
<svg width="100%" height="100%" viewBox="0 0 64 64" version="1.1" xmlns="http://www.w3.org/2000/svg" xmlns:xlink="http://www.w3.org/1999/xlink" xml:space="preserve" xmlns:serif="http://www.serif.com/" style="fill-rule:evenodd;clip-rule:evenodd;stroke-linejoin:round;stroke-miterlimit:2;">
    <g>
        <g>
            <path d="M32.331,46.326C30.578,46.326 29.053,45.615 28.011,44.302C27.04,43.08 26.627,41.469 26.876,39.881L28.072,32.263L27.796,32.405C26.413,33.116 24.715,32.571 24.004,31.188C23.293,29.805 23.838,28.107 25.221,27.396L30.426,24.72C31.369,24.235 32.504,24.321 33.363,24.942C34.222,25.563 34.66,26.614 34.495,27.661L32.45,40.685C32.86,40.642 33.917,40.384 35.885,39.017C37.162,38.129 38.917,38.445 39.804,39.722C40.692,40.999 40.376,42.754 39.099,43.641C36.64,45.351 34.531,46.226 32.653,46.318C32.545,46.324 32.437,46.326 32.331,46.326Z" style="fill-rule:nonzero;"/>
        </g>
        <g>
            <circle cx="32.803" cy="19.233" r="3.143"/>
        </g>
        <g>
            <g>
                <path d="M32,59.5C16.836,59.5 4.5,47.164 4.5,32C4.5,16.836 16.836,4.5 32,4.5C47.164,4.5 59.5,16.837 59.5,32C59.5,47.163 47.163,59.5 32,59.5ZM32,10.132C19.942,10.132 10.132,19.942 10.132,32C10.132,44.058 19.942,53.868 32,53.868C44.058,53.868 53.868,44.058 53.868,32C53.868,19.942 44.058,10.132 32,10.132Z" style="fill-rule:nonzero;"/>
            </g>
        </g>
    </g>
</svg>
