<?xml version="1.0" encoding="UTF-8" standalone="no"?>
<!DOCTYPE svg PUBLIC "-//W3C//DTD SVG 1.1//EN" "http://www.w3.org/Graphics/SVG/1.1/DTD/svg11.dtd">
<svg width="100%" height="100%" viewBox="0 0 128 128" version="1.1" xmlns="http://www.w3.org/2000/svg" xmlns:xlink="http://www.w3.org/1999/xlink" xml:space="preserve" xmlns:serif="http://www.serif.com/" style="fill-rule:evenodd;clip-rule:evenodd;stroke-linejoin:round;stroke-miterlimit:2;">
    <path d="M83,23C95.069,23 105,32.931 105,45L105,83C105,95.069 95.069,105 83,105L45,105C32.931,105 23,95.069 23,83L23,45C23,32.931 32.931,23 45,23L83,23M83,15L45,15C28.561,15.049 15.049,28.561 15,45L15,83C15.049,99.439 28.561,112.951 45,113L83,113C99.439,112.951 112.951,99.439 113,83L113,45C112.951,28.561 99.439,15.049 83,15Z" style="fill-rule:nonzero;"/>
    <path d="M90.14,32C86.997,32 84.41,34.587 84.41,37.73C84.41,40.873 86.997,43.46 90.14,43.46C93.283,43.46 95.87,40.873 95.87,37.73C95.87,34.587 93.283,32 90.14,32Z" style="fill-rule:nonzero;"/>
    <path d="M64.27,46.47C64.273,46.47 64.277,46.47 64.28,46.47C73.979,46.47 81.96,54.451 81.96,64.15C81.96,73.849 73.979,81.83 64.28,81.83C54.581,81.83 46.6,73.849 46.6,64.15C46.6,64.147 46.6,64.143 46.6,64.14C46.616,54.453 54.583,46.486 64.27,46.47M64.27,38.47C50.201,38.497 38.64,50.081 38.64,64.15C38.64,78.238 50.232,89.83 64.32,89.83C78.408,89.83 90,78.238 90,64.15C90,64.147 90,64.143 90,64.14C89.995,50.056 78.404,38.47 64.32,38.47C64.303,38.47 64.287,38.47 64.27,38.47Z" style="fill-rule:nonzero;"/>
</svg>
