<?xml version="1.0" encoding="UTF-8" standalone="no"?>
<!DOCTYPE svg PUBLIC "-//W3C//DTD SVG 1.1//EN" "http://www.w3.org/Graphics/SVG/1.1/DTD/svg11.dtd">
<svg width="100%" height="100%" viewBox="0 0 812 565" version="1.1" xmlns="http://www.w3.org/2000/svg" xmlns:xlink="http://www.w3.org/1999/xlink" xml:space="preserve" xmlns:serif="http://www.serif.com/" style="fill-rule:evenodd;clip-rule:evenodd;">
    <g id="Artboard1" transform="matrix(0.792705,0,0,0.899153,0,-147.48)">
        <rect x="0" y="164.021" width="1024" height="627.282" style="fill:none;"/>
        <g transform="matrix(1.2615,0,0,1.11216,-143.223,-88.7273)">
            <path d="M596.39,406.04C670.283,406.093 709.74,406.117 714.76,406.11C716.473,406.11 717.763,405.7 718.63,404.88C758.783,366.887 786.713,340.48 802.42,325.66C821.16,307.973 838.867,291.27 855.54,275.55C859.66,271.663 868.153,263.55 881.02,251.21C881.035,251.194 881.047,251.175 881.056,251.154C881.094,251.063 881.055,250.958 880.969,250.922C880.947,250.913 880.924,250.909 880.9,250.91C874.94,250.97 845.787,250.96 793.44,250.88C783.393,250.86 776.297,251.32 772.15,252.26C757.36,255.6 744.17,263.66 733.43,274.19C708.72,298.41 687.01,319.06 656.74,348.16C637.98,366.207 617.783,385.297 596.15,405.43C596.076,405.496 596.034,405.591 596.034,405.69C596.034,405.882 596.192,406.04 596.384,406.04C596.386,406.04 596.388,406.04 596.39,406.04" style="fill:none;fill-rule:nonzero;stroke:rgb(252,143,143);stroke-width:2px;"/>
            <path d="M220.68,405.55L219.76,395.48C219.759,395.471 219.759,395.461 219.758,395.452C219.741,395.046 220.055,394.698 220.455,394.681C220.467,394.68 220.478,394.68 220.49,394.68L236.29,394.68C238.824,394.68 240.91,392.594 240.91,390.06L240.91,389.55C240.91,387.07 238.87,385.03 236.39,385.03L220.74,385.03C220.739,385.03 220.738,385.03 220.738,385.03C220.304,385.03 219.948,384.673 219.948,384.24C219.948,384.22 219.948,384.2 219.95,384.18C221.09,367.553 225.503,352.047 233.19,337.66C233.343,337.374 233.642,337.194 233.966,337.194C234.126,337.194 234.283,337.238 234.42,337.32L248.81,345.96C250.968,347.247 253.796,346.577 255.14,344.46L255.33,344.16C255.804,343.423 256.056,342.565 256.056,341.688C256.056,340.057 255.183,338.545 253.77,337.73L239.93,329.74C239.48,329.482 239.201,329.001 239.201,328.482C239.201,328.205 239.281,327.933 239.43,327.7C247.81,314.6 258.643,303.833 271.93,295.4C272.065,295.315 272.222,295.27 272.381,295.27C272.686,295.27 272.969,295.435 273.12,295.7L281.32,309.9C282.518,311.974 285.162,312.761 287.3,311.68L287.76,311.45C289.2,310.726 290.112,309.246 290.112,307.635C290.112,306.886 289.915,306.149 289.54,305.5L281.24,291.13C281.161,290.992 281.12,290.836 281.12,290.678C281.12,290.338 281.309,290.026 281.61,289.87C296.303,282.31 311.737,278.233 327.91,277.64C327.923,277.639 327.937,277.639 327.95,277.639C328.515,277.639 328.98,278.104 328.98,278.669C328.98,278.669 328.98,278.67 328.98,278.67L328.98,296.75C328.98,299.021 330.849,300.89 333.12,300.89L333.81,300.89C336.158,300.89 338.09,298.958 338.09,296.61L338.09,278.4C338.09,278.395 338.09,278.39 338.09,278.385C338.098,277.973 338.448,277.642 338.864,277.65C338.87,277.65 338.875,277.65 338.88,277.65C354.047,278.243 368.75,281.783 382.99,288.27C384.317,288.87 385.137,289.29 385.45,289.53C385.787,289.788 385.886,290.259 385.68,290.63C383.74,294.097 381.213,298.417 378.1,303.59C373.91,310.55 382.45,314.98 385.71,309.16C388.53,304.113 391.183,299.583 393.67,295.57C394.001,295.041 394.701,294.871 395.23,295.19C409.357,303.637 420.64,314.803 429.08,328.69C429.171,328.837 429.219,329.006 429.219,329.178C429.219,329.508 429.044,329.813 428.76,329.98L415.13,337.85C413.77,338.632 412.929,340.086 412.929,341.655C412.929,342.53 413.191,343.385 413.68,344.11L413.87,344.38C415.288,346.48 418.121,347.136 420.31,345.87L433.46,338.27C433.617,338.181 433.794,338.134 433.974,338.134C434.364,338.134 434.722,338.353 434.9,338.7C440.82,350.24 444.627,362.397 446.32,375.17C447.52,384.28 447.03,397.18 446.96,405.6C446.96,405.858 447.172,406.07 447.43,406.07L469.56,406.07C469.877,406.071 470.144,405.826 470.17,405.51C472.73,374.89 466.643,347.06 451.91,322.02C427.57,280.62 385.41,256.54 337.51,255C323.63,254.553 310.877,255.92 299.25,259.1C270.703,266.907 247.39,281.607 229.31,303.2C205.92,331.13 194.3,365.84 196.15,402.28C196.237,403.96 196.393,405.047 196.62,405.54C196.755,405.844 197.058,406.041 197.39,406.04L220.21,406.06C220.218,406.06 220.227,406.06 220.235,406.059C220.493,406.047 220.694,405.829 220.682,405.577C220.682,405.568 220.681,405.559 220.68,405.55" style="fill:none;fill-rule:nonzero;stroke:rgb(137,136,133);stroke-width:2px;"/>
            <path d="M338.65,371.79C338.28,371.98 337.54,372.16 337.13,372.08C328.697,370.487 321.803,372.69 316.45,378.69C309.67,386.29 310.41,398.83 317.74,405.35C322.133,409.263 327.46,411.01 333.72,410.59C341.13,410.09 348.99,404.35 351.15,396.37C351.443,395.283 351.817,393.347 352.27,390.56" style="fill:none;fill-rule:nonzero;stroke:rgb(137,136,133);stroke-width:2px;"/>
            <path d="M352.27,390.56L412.2,319.67C412.24,319.616 412.262,319.551 412.262,319.485C412.262,319.314 412.122,319.175 411.952,319.175C411.895,319.175 411.839,319.19 411.79,319.22L340.01,370.29C339.613,370.575 339.265,370.923 338.98,371.32L338.65,371.79" style="fill:none;fill-rule:nonzero;stroke:rgb(252,143,143);stroke-width:2px;"/>
            <path d="M352.27,390.56C350.897,381.827 346.627,375.883 339.46,372.73C339.14,372.59 338.87,372.277 338.65,371.79" style="fill:none;fill-rule:nonzero;stroke:rgb(134,26,26);stroke-width:2px;"/>
            <path d="M148.44,489.49C146.927,498.297 144.66,511.287 141.64,528.46C140.66,534.06 140.173,538.51 140.18,541.81C140.23,560.69 154.99,566.07 171.08,566.14C181.32,566.19 189.79,565.4 198.13,561.17C210.2,555.04 215.19,544.1 217.41,531.23C219.203,520.823 220.927,510.817 222.58,501.21C224.093,492.403 226.36,479.413 229.38,462.24C230.36,456.64 230.847,452.19 230.84,448.89C230.79,430.01 216.03,424.63 199.94,424.56C189.7,424.51 181.23,425.3 172.89,429.53C160.82,435.66 155.83,446.6 153.61,459.47C151.817,469.877 150.093,479.883 148.44,489.49" style="fill:none;fill-rule:nonzero;stroke:rgb(137,136,133);stroke-width:2px;"/>
            <path d="M266.34,528.1C266.32,528.106 266.3,528.109 266.28,528.109C266.165,528.109 266.07,528.014 266.07,527.899C266.07,527.896 266.07,527.893 266.07,527.89L270.18,426.55C270.181,426.54 270.181,426.53 270.181,426.52C270.181,426.207 269.923,425.95 269.611,425.95C269.607,425.95 269.604,425.95 269.6,425.95L242.09,426.05C241.821,426.05 241.6,426.271 241.6,426.54L242.08,563.32C242.08,563.321 242.08,563.322 242.08,563.323C242.081,563.75 242.438,564.1 242.87,564.1L277.48,563.98C278.117,563.978 278.689,563.578 278.91,562.98L328.48,426.64C328.492,426.607 328.5,426.573 328.506,426.539C328.565,426.199 328.329,425.869 327.983,425.809C327.949,425.804 327.914,425.8 327.88,425.8L301.45,425.89C300.803,425.892 300.225,426.312 300.02,426.93C277.753,494.017 266.623,527.65 266.63,527.83C266.63,527.957 266.533,528.047 266.34,528.1" style="fill:none;fill-rule:nonzero;stroke:rgb(137,136,133);stroke-width:2px;"/>
            <path d="M399.61,425.91L340.33,425.91C339.622,425.91 339.011,426.428 338.89,427.13C326.75,496.923 319.08,541.247 315.88,560.1C315.6,561.733 315.507,562.82 315.6,563.36C315.668,563.747 316.007,564.031 316.4,564.03L375.68,564.03C376.139,564.032 376.538,563.697 376.62,563.24L380.61,540.62C380.617,540.584 380.62,540.547 380.62,540.51C380.62,540.17 380.34,539.89 380,539.89L347.9,539.89C347.899,539.89 347.898,539.89 347.897,539.89C347.425,539.89 347.037,539.502 347.037,539.03C347.037,538.98 347.041,538.93 347.05,538.88L352.5,507.99C352.605,507.43 353.095,507.021 353.66,507.02L380.88,507.02C381.606,507.02 382.234,506.49 382.36,505.77L386.26,483.66C386.267,483.62 386.271,483.58 386.271,483.54C386.271,483.183 385.978,482.89 385.621,482.89C385.621,482.89 385.62,482.89 385.62,482.89L357.35,482.89C357.332,482.89 357.313,482.889 357.295,482.888C356.945,482.858 356.682,482.541 356.713,482.185C356.714,482.167 356.717,482.148 356.72,482.13L362.42,449.83C362.454,449.63 362.632,449.481 362.84,449.48L395.67,449.48C396.049,449.48 396.377,449.204 396.44,448.83L400.34,426.77C400.344,426.748 400.347,426.726 400.349,426.703C400.383,426.304 400.078,425.947 399.674,425.913C399.653,425.911 399.631,425.91 399.61,425.91" style="fill:none;fill-rule:nonzero;stroke:rgb(137,136,133);stroke-width:2px;"/>
            <path d="M472.4,563.48L464.05,511.1C463.984,510.692 464.198,510.289 464.57,510.12C473.83,505.873 479.47,498.663 481.49,488.49C482.843,481.663 484.81,471.147 487.39,456.94C488.07,453.207 488.273,449.573 488,446.04C486.57,427.3 466.22,425.88 452,425.91C448.473,425.917 437.213,425.907 418.22,425.88C417.407,425.882 416.704,426.47 416.56,427.27L392.57,563.15C392.567,563.171 392.564,563.191 392.562,563.212C392.524,563.644 392.844,564.03 393.27,564.067C393.293,564.069 393.317,564.07 393.34,564.07L418.67,564.07C419.356,564.071 419.949,563.575 420.07,562.9L428.42,515.59C428.473,515.291 428.736,515.07 429.04,515.07L438.54,515.07C439.067,515.068 439.514,515.48 439.56,516.01L443.85,563.1C443.901,563.648 444.364,564.072 444.91,564.07L471.9,564.07C472.178,564.068 472.406,563.838 472.406,563.56C472.406,563.533 472.404,563.506 472.4,563.48" style="fill:none;fill-rule:nonzero;stroke:rgb(137,136,133);stroke-width:2px;"/>
            <path d="M486.85,563.85C487.797,564.043 489.18,564.127 491,564.1C493.453,564.06 501.563,564.047 515.33,564.06C531.18,564.09 549.9,564.85 560.06,549.99C563.333,545.21 565.523,539.833 566.63,533.86C567.903,526.96 572.377,501.847 580.05,458.52C582.25,446.09 580.59,433.03 566.9,428.45C560.14,426.19 552.64,425.9 545.25,425.91C543.157,425.917 531.793,425.91 511.16,425.89C510.427,425.892 509.795,426.417 509.67,427.13L485.81,562.31C485.682,563.016 486.147,563.705 486.85,563.85" style="fill:none;fill-rule:nonzero;stroke:rgb(137,136,133);stroke-width:2px;"/>
            <path d="M658.41,563.62L650.11,511.59C649.967,510.715 650.441,509.842 651.26,509.47C664.45,503.56 666.45,493.91 669.19,479C671.277,467.647 672.643,460.003 673.29,456.07C674.063,451.41 674.26,447.597 673.88,444.63C672.01,429.81 656.94,426.19 644.23,426.01C631.237,425.817 617.537,425.79 603.13,425.93C602.646,425.937 602.232,426.287 602.15,426.76L578.1,562.93C578.096,562.956 578.092,562.983 578.09,563.01C578.045,563.54 578.441,564.013 578.965,564.057C578.994,564.059 579.022,564.06 579.05,564.06L604.61,564.06C605.157,564.059 605.628,563.664 605.72,563.13L614.09,515.7C614.158,515.324 614.488,515.049 614.87,515.05L624.73,515.05C625.206,515.049 625.609,515.421 625.65,515.9L629.97,563.34C630.006,563.741 630.343,564.051 630.74,564.05L658.04,564.05C658.042,564.05 658.043,564.05 658.045,564.05C658.248,564.05 658.415,563.883 658.415,563.68C658.415,563.66 658.413,563.64 658.41,563.62" style="fill:none;fill-rule:nonzero;stroke:rgb(137,136,133);stroke-width:2px;"/>
            <path d="M699.19,564.13C699.758,564.129 700.249,563.719 700.35,563.16L724.34,427.3C724.353,427.231 724.359,427.16 724.359,427.09C724.359,426.443 723.826,425.91 723.179,425.91C723.176,425.91 723.173,425.91 723.17,425.91L697.81,425.91C697.242,425.911 696.751,426.321 696.65,426.88L672.66,562.74C672.647,562.809 672.641,562.88 672.641,562.95C672.641,563.597 673.174,564.13 673.821,564.13C673.824,564.13 673.827,564.13 673.83,564.13L699.19,564.13" style="fill:none;fill-rule:nonzero;stroke:rgb(137,136,133);stroke-width:2px;"/>
            <path d="M762.4,528.14C762.38,528.146 762.36,528.149 762.34,528.149C762.225,528.149 762.13,528.054 762.13,527.939C762.13,527.936 762.13,527.933 762.13,527.93L766.6,426.44C766.601,426.43 766.601,426.42 766.601,426.41C766.601,426.097 766.343,425.84 766.031,425.84C766.031,425.84 766.03,425.84 766.03,425.84L738.47,425.84C738.201,425.84 737.98,426.061 737.98,426.33L737.98,563.34C737.98,563.768 738.337,564.12 738.77,564.12L773.43,564.12C774.072,564.119 774.649,563.719 774.87,563.12L825,426.74C825.013,426.705 825.023,426.668 825.03,426.631C825.09,426.291 824.854,425.961 824.509,425.9C824.473,425.894 824.436,425.89 824.4,425.89L797.93,425.89C797.28,425.891 796.699,426.311 796.49,426.93C773.95,494.043 762.683,527.69 762.69,527.87C762.69,527.997 762.593,528.087 762.4,528.14" style="fill:none;fill-rule:nonzero;stroke:rgb(137,136,133);stroke-width:2px;"/>
            <path d="M898.54,426.03L839.18,425.75C838.469,425.745 837.852,426.264 837.73,426.97C825.243,496.803 817.353,541.153 814.06,560.02C813.773,561.653 813.673,562.74 813.76,563.28C813.828,563.667 814.167,563.951 814.56,563.95L873.92,564.24C874.385,564.243 874.788,563.907 874.87,563.45L878.97,540.82C878.978,540.78 878.982,540.74 878.982,540.7C878.982,540.363 878.707,540.084 878.37,540.08L846.22,539.93C846.218,539.93 846.217,539.93 846.215,539.93C845.743,539.93 845.355,539.542 845.355,539.07C845.355,539.016 845.36,538.963 845.37,538.91L850.98,508.01C851.085,507.45 851.575,507.041 852.14,507.04L879.4,507.17C880.127,507.176 880.759,506.65 880.89,505.93L884.9,483.8C884.907,483.76 884.911,483.72 884.911,483.68C884.911,483.323 884.618,483.03 884.261,483.03C884.261,483.03 884.26,483.03 884.26,483.03L855.95,482.89C855.934,482.89 855.918,482.889 855.902,482.887C855.552,482.856 855.291,482.537 855.323,482.182C855.325,482.165 855.327,482.147 855.33,482.13L861.19,449.81C861.224,449.61 861.402,449.461 861.61,449.46L894.49,449.62C894.869,449.62 895.197,449.344 895.26,448.97L899.27,426.9C899.275,426.876 899.278,426.852 899.28,426.827C899.317,426.428 899.014,426.07 898.61,426.033C898.586,426.031 898.563,426.03 898.54,426.03" style="fill:none;fill-rule:nonzero;stroke:rgb(137,136,133);stroke-width:2px;"/>
            <path d="M849.11,642.3L837.87,642.3C837.555,642.3 837.283,642.53 837.23,642.84C836.797,645.433 836.48,647.497 836.28,649.03C835.02,658.71 841.51,664.2 850.6,664.61C861.49,665.11 871.58,660.74 875.59,650.06C876.31,648.127 876.967,645.45 877.56,642.03C878.88,634.47 875.79,629.38 870.25,624.79C864.357,619.897 860.873,616.96 859.8,615.98C855.9,612.4 855.73,608.21 857.68,603.66C859.58,599.23 864.49,597.88 868.65,599.59C872.33,601.11 871.29,606.14 870.73,609.95C870.726,609.976 870.724,610.003 870.724,610.03C870.724,610.303 870.947,610.528 871.22,610.53L881.71,610.53C882.029,610.531 882.31,610.301 882.38,609.98C884.19,601.58 885.42,592.29 875.75,589.52C870.237,587.933 864.683,587.98 859.09,589.66C849.34,592.58 845.44,600.72 844.28,610.21C843.673,615.15 844.853,619.203 847.82,622.37C852.1,626.95 857.59,630.94 861.55,634.52C863.13,635.95 864.82,638.44 865,640.28C865.64,647.03 862.04,654.1 854.44,653.69C851.647,653.537 849.933,652.327 849.3,650.06C848.633,647.66 848.763,645.36 849.69,643.16C849.706,643.123 849.718,643.084 849.726,643.044C849.792,642.71 849.568,642.38 849.229,642.312C849.19,642.305 849.15,642.3 849.11,642.3" style="fill:none;fill-rule:nonzero;stroke:rgb(137,136,133);stroke-width:2px;"/>
            <path d="M473.6,623.02C473.373,624.307 472.07,631.097 469.69,643.39C467.9,652.65 469.22,661.98 480.19,663.96C487.7,665.32 498.43,664.33 504.15,658.87C508.62,654.61 510.79,648.75 511.92,642.8C512.733,638.493 513.51,634.203 514.25,629.93C514.477,628.637 515.78,621.843 518.16,609.55C519.95,600.3 518.63,590.97 507.66,588.99C500.15,587.63 489.42,588.62 483.7,594.08C479.23,598.34 477.06,604.2 475.93,610.15C475.117,614.457 474.34,618.747 473.6,623.02" style="fill:none;fill-rule:nonzero;stroke:rgb(137,136,133);stroke-width:2px;"/>
            <path d="M644.55,610.57L654.58,610.57C654.894,610.568 655.169,610.359 655.25,610.06C657.51,601.47 658.58,591.35 647.14,589.1C643.473,588.38 639.363,588.297 634.81,588.85C627.67,589.723 622.29,592.947 618.67,598.52C616.81,601.387 615.187,606.543 613.8,613.99C610.46,631.99 608.6,642.073 608.22,644.24C606.68,653.05 608.47,661.68 618.48,663.84C624.12,665.053 629.61,664.807 634.95,663.1C644.98,659.9 648.49,651.69 650.39,641.06C651.283,636.033 652.29,630.463 653.41,624.35C653.411,624.343 653.412,624.337 653.413,624.33C653.424,624.199 653.33,624.082 653.205,624.071C653.197,624.07 653.188,624.07 653.18,624.07L635.53,624.07C634.752,624.072 634.079,624.634 633.94,625.4L632.81,631.83C632.799,631.889 632.794,631.95 632.794,632.01C632.794,632.568 633.252,633.028 633.81,633.03L639.23,633.03C639.711,633.033 640.105,633.429 640.105,633.91C640.105,633.964 640.1,634.017 640.09,634.07C639.503,637.33 638.94,640.203 638.4,642.69C637.13,648.5 634.8,652.71 629.09,653.64C623.3,654.57 619.49,651.2 620.17,645.2C620.343,643.66 622.397,632.583 626.33,611.97C627.83,604.12 629.71,598.8 638.24,598.92C643.527,598.993 645.647,601.743 644.6,607.17C644.313,608.683 644.14,609.64 644.08,610.04C644.077,610.06 644.076,610.08 644.076,610.1C644.076,610.358 644.288,610.57 644.546,610.57C644.547,610.57 644.549,610.57 644.55,610.57" style="fill:none;fill-rule:nonzero;stroke:rgb(137,136,133);stroke-width:2px;"/>
            <path d="M461.87,589.61C461.949,589.535 461.995,589.43 461.995,589.32C461.995,589.101 461.814,588.92 461.595,588.92C461.593,588.92 461.592,588.92 461.59,588.92C443.657,588.887 432.29,588.87 427.49,588.87C408.437,588.857 391.61,594.833 377.01,606.8C371.857,611.033 367.443,614.86 363.77,618.28C304.323,673.66 248.973,725.033 197.72,772.4C197.642,772.468 197.598,772.567 197.598,772.67C197.598,772.868 197.76,773.03 197.958,773.03C197.962,773.03 197.966,773.03 197.97,773.03C208.37,772.95 219.847,772.943 232.4,773.01C239.413,773.043 245.113,772.663 249.5,771.87C263.93,769.25 277.65,761.92 288.61,751.86C299.33,742.013 311.23,730.913 324.31,718.56C382.823,663.32 417.163,630.997 427.33,621.59C444.55,605.657 456.063,594.997 461.87,589.61" style="fill:none;fill-rule:nonzero;stroke:rgb(127,218,220);stroke-width:2px;"/>
            <path d="M522.76,663.02L534.21,662.93C534.352,662.931 534.476,662.825 534.5,662.68L539.43,636.69C539.516,636.227 539.924,635.886 540.4,635.88L548.33,635.82C548.596,635.818 548.825,636.021 548.86,636.29L552.16,662.66C552.18,662.859 552.35,663.011 552.55,663.01L564.79,662.92C565.068,662.918 565.296,662.688 565.296,662.41C565.296,662.383 565.294,662.356 565.29,662.33L560.91,634.88C560.807,634.201 561.211,633.541 561.86,633.33C568.56,631.12 570.55,625.35 571.99,618.75C573.443,612.13 574.33,606.81 574.65,602.79C575.52,592.03 567.41,590.18 559,590.05C551.933,589.943 544.613,589.913 537.04,589.96C536.502,589.96 536.036,590.345 535.94,590.87L522.36,662.54C522.356,662.563 522.354,662.587 522.354,662.61C522.354,662.833 522.537,663.018 522.76,663.02" style="fill:none;fill-rule:nonzero;stroke:rgb(137,136,133);stroke-width:2px;"/>
            <path d="M590.65,663.05C590.951,663.051 591.213,662.836 591.27,662.54L604.87,590.75C604.878,590.71 604.882,590.67 604.882,590.63C604.882,590.284 604.597,590 604.252,590C604.251,590 604.251,590 604.25,590L593.36,590C593.059,589.999 592.797,590.214 592.74,590.51L579.13,662.3C579.122,662.34 579.118,662.38 579.118,662.42C579.118,662.766 579.403,663.05 579.748,663.05C579.749,663.05 579.749,663.05 579.75,663.05L590.65,663.05" style="fill:none;fill-rule:nonzero;stroke:rgb(137,136,133);stroke-width:2px;"/>
            <path d="M672.11,663.05C672.339,663.049 672.537,662.885 672.58,662.66L686.23,590.62C686.236,590.59 686.239,590.56 686.239,590.53C686.239,590.267 686.023,590.051 685.76,590.05L674.57,590.05C674.341,590.051 674.143,590.215 674.1,590.44L660.45,662.48C660.444,662.51 660.441,662.54 660.441,662.57C660.441,662.833 660.657,663.049 660.92,663.05L672.11,663.05" style="fill:none;fill-rule:nonzero;stroke:rgb(137,136,133);stroke-width:2px;"/>
            <path d="M707.59,615.06L707.87,614.58C708.003,614.345 708.307,614.26 708.55,614.39C708.757,614.51 708.92,614.55 709.04,614.51" style="fill:none;fill-rule:nonzero;stroke:rgb(177,178,174);stroke-width:2px;"/>
            <path d="M709.04,614.51L717.08,662.38C717.138,662.72 717.436,662.97 717.78,662.97L730.28,662.97C730.487,662.97 730.668,662.823 730.71,662.62L744.33,590.73C744.337,590.69 744.341,590.65 744.341,590.61C744.341,590.248 744.043,589.95 743.681,589.95C743.681,589.95 743.68,589.95 743.68,589.95L732.98,589.95C732.618,589.949 732.301,590.21 732.23,590.57C729.577,604.25 727.1,617.23 724.8,629.51C724.31,632.13 724.42,634.96 723.82,637.38C723.772,637.57 723.599,637.704 723.403,637.704C723.196,637.704 723.017,637.554 722.98,637.35L715.51,590.55C715.456,590.218 715.167,589.971 714.83,589.97L701.55,589.97C701.132,589.972 700.771,590.27 700.69,590.68L687.11,662.36C687.104,662.393 687.1,662.426 687.1,662.46C687.1,662.745 687.335,662.98 687.62,662.98L698.73,662.98C698.961,662.98 699.163,662.816 699.21,662.59C702.137,646.897 704.887,632.03 707.46,617.99C707.553,617.47 707.597,616.493 707.59,615.06" style="fill:none;fill-rule:nonzero;stroke:rgb(137,136,133);stroke-width:2px;"/>
            <path d="M709.04,614.51C709.987,616.423 710.63,618.44 710.97,620.56C713.163,634.073 715.427,647.583 717.76,661.09C717.858,661.681 718.381,662.12 718.99,662.12L729.37,662.04C729.722,662.041 730.027,661.787 730.09,661.44L743.27,591.87C743.275,591.841 743.279,591.812 743.282,591.783C743.328,591.269 742.947,590.809 742.439,590.764C742.41,590.761 742.38,590.76 742.35,590.76L733.87,590.82C733.389,590.826 732.974,591.174 732.88,591.65C728.81,613 726.05,625.47 724.9,635.47C724.793,636.397 724.61,637.047 724.35,637.42C724.096,637.784 723.679,638.001 723.235,638.001C722.564,638.001 721.988,637.504 721.89,636.84L715.01,592.18C714.882,591.373 714.177,590.775 713.36,590.78L702.27,590.86C701.867,590.859 701.517,591.155 701.44,591.56L688.24,661.18C688.23,661.229 688.226,661.28 688.226,661.33C688.226,661.763 688.582,662.12 689.016,662.12C689.017,662.12 689.019,662.12 689.02,662.12L697.59,662.05C698.123,662.049 698.584,661.664 698.68,661.14L707.25,614.81C707.255,614.786 707.276,614.77 707.3,614.77C707.5,614.783 707.597,614.88 707.59,615.06" style="fill:none;fill-rule:nonzero;stroke:rgb(59,61,56);stroke-width:2px;"/>
            <path d="M740.82,663L752.48,662.91C752.823,662.91 753.133,662.699 753.26,662.38L759.58,646.73C759.754,646.308 760.17,646.031 760.63,646.03L774.02,645.93C774.023,645.93 774.027,645.93 774.03,645.93C774.564,645.93 775.005,646.366 775.01,646.9L775.12,662.34C775.12,662.342 775.12,662.343 775.12,662.345C775.122,662.696 775.418,662.983 775.774,662.98C775.776,662.98 775.778,662.98 775.78,662.98L787.08,662.9C787.354,662.9 787.58,662.67 787.58,662.39L787.05,590.72C787.05,590.718 787.05,590.717 787.05,590.715C787.047,590.342 786.734,590.037 786.355,590.04C786.354,590.04 786.352,590.04 786.35,590.04C782.103,590.073 777.733,590.03 773.24,589.91C771.66,589.863 770.55,590.01 769.91,590.35C769.677,590.473 769.496,590.675 769.4,590.92L740.47,662.49C740.461,662.512 740.454,662.535 740.45,662.559C740.412,662.759 740.549,662.955 740.754,662.993C740.776,662.997 740.798,663 740.82,663" style="fill:none;fill-rule:nonzero;stroke:rgb(137,136,133);stroke-width:2px;"/>
            <path d="M812.55,589.97C812.312,589.966 812.104,590.136 812.06,590.37L798.42,662.38C798.414,662.41 798.412,662.44 798.412,662.47C798.412,662.738 798.632,662.959 798.9,662.96L826.88,662.96C827.118,662.964 827.326,662.794 827.37,662.56L829.25,652.61C829.256,652.58 829.258,652.55 829.258,652.52C829.258,652.252 829.038,652.031 828.77,652.03L813.21,652.03C812.942,652.029 812.722,651.808 812.722,651.54C812.722,651.51 812.724,651.48 812.73,651.45L824.27,590.55C824.276,590.52 824.278,590.49 824.278,590.46C824.278,590.192 824.058,589.971 823.79,589.97L812.55,589.97" style="fill:none;fill-rule:nonzero;stroke:rgb(137,136,133);stroke-width:2px;"/>
            <path d="M175.29,493.64C173.09,505.74 170.927,517.99 168.8,530.39C167.97,535.22 167,540.87 172.86,542.37C179.69,544.12 187.93,541.88 189.49,533.98C190.93,526.71 192.84,514.39 195.96,497.24C198.16,485.14 200.323,472.89 202.45,460.49C203.28,455.66 204.25,450.01 198.39,448.51C191.56,446.76 183.32,449 181.76,456.9C180.33,464.17 178.41,476.49 175.29,493.64" style="fill:none;fill-rule:nonzero;stroke:rgb(137,136,133);stroke-width:2px;"/>
            <path d="M432.9,493.34C437.96,493.5 442.27,493.353 445.83,492.9C453.67,491.91 455.44,487.11 456.81,479.39C458.563,469.503 459.72,462.627 460.28,458.76C461.26,452.03 459.65,449.1 452.62,448.83C449.78,448.717 445.88,448.67 440.92,448.69C440.546,448.69 440.223,448.967 440.16,449.34L432.48,492.82C432.475,492.846 432.473,492.873 432.473,492.9C432.473,493.137 432.663,493.333 432.9,493.34" style="fill:none;fill-rule:nonzero;stroke:rgb(137,136,133);stroke-width:2px;"/>
            <path d="M533.25,449.22L517.28,539.67C517.271,539.723 517.266,539.777 517.266,539.831C517.266,540.322 517.659,540.731 518.15,540.75C522.757,540.93 526.87,540.767 530.49,540.26C536.69,539.38 539.32,535.03 540.32,529.31C548.027,485.223 552.137,461.793 552.65,459.02C554.86,447.07 542.03,448.2 534.02,448.54C533.637,448.558 533.315,448.842 533.25,449.22" style="fill:none;fill-rule:nonzero;stroke:rgb(137,136,133);stroke-width:2px;"/>
            <path d="M618.64,493.03C623.667,493.177 627.947,493.02 631.48,492.56C639.27,491.56 641.01,486.79 642.35,479.12C644.07,469.3 645.203,462.467 645.75,458.62C646.71,451.94 645.1,449.03 638.12,448.78C635.3,448.673 631.427,448.637 626.5,448.67C626.128,448.671 625.809,448.948 625.75,449.32L618.22,492.52C618.218,492.53 618.217,492.539 618.216,492.549C618.193,492.789 618.367,493.005 618.602,493.028C618.615,493.029 618.627,493.03 618.64,493.03" style="fill:none;fill-rule:nonzero;stroke:rgb(137,136,133);stroke-width:2px;"/>
            <path d="M848.44,643.87C848.441,643.861 848.441,643.852 848.441,643.843C848.454,643.476 848.167,643.163 847.805,643.15C847.797,643.15 847.788,643.15 847.78,643.15L839.02,643.15C838.394,643.15 837.86,643.619 837.78,644.24C837.333,647.653 837.097,649.713 837.07,650.42C836.42,665.53 853.71,665.55 863.82,661.52C868.087,659.813 871.287,656.94 873.42,652.9C876.04,647.95 878.18,639.36 876.28,633.9C875.34,631.173 873.53,628.667 870.85,626.38C865.85,622.12 862.603,619.433 861.11,618.32C855.923,614.453 854.413,609.78 856.58,604.3C858.3,599.96 861.67,597.53 866.24,598.03C871.127,598.557 872.97,601.99 871.77,608.33C871.758,608.396 871.751,608.463 871.751,608.53C871.751,609.122 872.238,609.609 872.83,609.61L880.2,609.61C880.928,609.61 881.575,609.13 881.79,608.43C882.903,604.65 883.123,600.853 882.45,597.04C882.383,596.674 882.28,596.319 882.14,595.98C880.853,592.92 878.37,590.95 874.69,590.07C865.41,587.85 853.39,589.88 848.52,598.94C846.433,602.813 845.283,607.16 845.07,611.98C844.85,616.88 846.82,621.067 850.98,624.54C851.06,624.607 854.217,627.263 860.45,632.51C863.657,635.21 865.42,637.883 865.74,640.53C866.65,648.14 860.82,656.71 852.26,654.13C847.37,652.66 848.2,647.36 848.44,643.87" style="fill:none;fill-rule:nonzero;stroke:rgb(59,61,56);stroke-width:2px;"/>
            <path d="M474.58,622.78C473.407,629.147 472.153,635.507 470.82,641.86C468.87,651.18 469.01,661.26 480.72,663.23C488.61,664.56 500.46,663.07 505.52,656.29C507.867,653.143 509.47,649.637 510.33,645.77C510.857,643.403 511.857,638.213 513.33,630.2C514.503,623.84 515.757,617.48 517.09,611.12C519.04,601.81 518.9,591.73 507.19,589.76C499.3,588.43 487.45,589.92 482.39,596.7C480.043,599.847 478.44,603.353 477.58,607.22C477.053,609.587 476.053,614.773 474.58,622.78" style="fill:none;fill-rule:nonzero;stroke:rgb(59,61,56);stroke-width:2px;"/>
            <path d="M646.12,609.65L653.43,609.59C654.058,609.589 654.609,609.154 654.76,608.54C656.37,601.82 657.41,592.97 648.98,590.54C642.673,588.727 636.177,588.9 629.49,591.06C621.2,593.75 617.22,600.95 615.69,609.01C611.57,630.763 609.317,642.843 608.93,645.25C608.583,647.41 608.55,649.767 608.83,652.32C610.06,663.3 620.69,664.48 629.77,663.36C643.38,661.67 647.38,653.09 649.6,641.12C650.24,637.627 651.147,632.507 652.32,625.76C652.328,625.714 652.332,625.667 652.332,625.62C652.332,625.165 651.957,624.79 651.502,624.79C651.498,624.79 651.494,624.79 651.49,624.79L635.83,624.9C635.263,624.905 634.776,625.316 634.68,625.87L633.74,631.22C633.736,631.239 633.734,631.259 633.731,631.278C633.681,631.725 634.012,632.135 634.465,632.186C634.483,632.188 634.502,632.189 634.52,632.19L639.64,632.41C639.651,632.41 639.661,632.411 639.672,632.412C640.312,632.459 640.8,633.029 640.752,633.674C640.752,633.683 640.751,633.691 640.75,633.7C640.317,638.127 639.483,642.293 638.25,646.2C636.31,652.33 629.74,656.52 623.66,653.86C618.77,651.71 618.99,646.69 619.84,642.09C623.287,623.243 625.45,611.9 626.33,608.06C627.977,600.813 632.4,597.527 639.6,598.2C644.727,598.687 646.607,602.143 645.24,608.57C645.234,608.6 645.229,608.631 645.226,608.662C645.177,609.153 645.536,609.597 646.022,609.646C646.055,609.649 646.087,609.65 646.12,609.65" style="fill:none;fill-rule:nonzero;stroke:rgb(59,61,56);stroke-width:2px;"/>
            <path d="M484.65,624.27C483.25,631.91 482.197,637.4 481.49,640.74C481.043,642.86 480.76,644.853 480.64,646.72C480.12,654.95 489.25,656.37 494.59,652.83C497.697,650.77 499.613,647.83 500.34,644.01C501.347,638.717 502.327,633.463 503.28,628.25C504.687,620.617 505.743,615.13 506.45,611.79C506.897,609.67 507.18,607.677 507.3,605.81C507.82,597.58 498.69,596.16 493.35,599.7C490.243,601.76 488.327,604.697 487.6,608.51C486.593,613.81 485.61,619.063 484.65,624.27" style="fill:none;fill-rule:nonzero;stroke:rgb(59,61,56);stroke-width:2px;"/>
            <path d="M523.89,662.06L533.09,661.99C533.542,661.984 533.929,661.66 534.01,661.22C535.45,653.113 536.937,645.207 538.47,637.5C538.75,636.113 539.55,635.36 540.87,635.24C542.703,635.08 545.12,634.963 548.12,634.89C548.929,634.873 549.628,635.477 549.73,636.28L552.83,661.07C552.905,661.654 553.406,662.094 553.99,662.09L563.67,662.02C563.687,662.02 563.703,662.019 563.72,662.018C564.053,661.989 564.304,661.696 564.276,661.368C564.275,661.352 564.273,661.336 564.27,661.32L560.16,635.56C559.953,634.27 560.701,633.003 561.93,632.56C565.557,631.26 568.01,628.75 569.29,625.03C571.323,619.103 572.83,611.843 573.81,603.25C575.13,591.7 565.6,590.96 557.25,590.87C556.45,590.857 549.943,590.797 537.73,590.69C537.226,590.69 536.791,591.05 536.7,591.54L523.44,661.51C523.438,661.523 523.436,661.536 523.435,661.548C523.412,661.805 523.599,662.035 523.85,662.058C523.864,662.059 523.877,662.06 523.89,662.06" style="fill:none;fill-rule:nonzero;stroke:rgb(59,61,56);stroke-width:2px;"/>
            <path d="M594.33,590.7C593.903,590.697 593.531,591.001 593.45,591.42L580.27,660.96C580.259,661.016 580.254,661.073 580.254,661.13C580.254,661.617 580.653,662.018 581.14,662.02L589.8,662.02C590.227,662.023 590.599,661.719 590.68,661.3L603.85,591.76C603.861,591.704 603.866,591.647 603.866,591.59C603.866,591.103 603.467,590.702 602.98,590.7L594.33,590.7" style="fill:none;fill-rule:nonzero;stroke:rgb(59,61,56);stroke-width:2px;"/>
            <path d="M675.65,590.89C675.223,590.887 674.851,591.191 674.77,591.61L661.62,661.05C661.609,661.106 661.604,661.163 661.604,661.22C661.604,661.707 662.003,662.108 662.49,662.11L671.12,662.11C671.547,662.113 671.919,661.809 672,661.39L685.16,591.95C685.171,591.894 685.176,591.837 685.176,591.78C685.176,591.293 684.777,590.892 684.29,590.89L675.65,590.89" style="fill:none;fill-rule:nonzero;stroke:rgb(59,61,56);stroke-width:2px;"/>
            <path d="M770.87,590.97C770.519,590.972 770.203,591.186 770.07,591.51L742.01,660.95C741.967,661.055 741.945,661.167 741.945,661.28C741.945,661.757 742.338,662.15 742.815,662.15C742.817,662.15 742.818,662.15 742.82,662.15L751.98,662.08C752.331,662.078 752.647,661.864 752.78,661.54L759.13,645.82C759.263,645.496 759.579,645.282 759.93,645.28L774.86,645.17C774.863,645.17 774.867,645.17 774.87,645.17C775.344,645.17 775.735,645.557 775.74,646.03L775.84,661.25C775.845,661.723 776.236,662.11 776.71,662.11C776.713,662.11 776.717,662.11 776.72,662.11L785.82,662.05C786.293,662.045 786.68,661.654 786.68,661.18C786.68,661.177 786.68,661.173 786.68,661.17L786.18,591.72C786.175,591.247 785.784,590.86 785.31,590.86C785.307,590.86 785.303,590.86 785.3,590.86L770.87,590.97" style="fill:none;fill-rule:nonzero;stroke:rgb(59,61,56);stroke-width:2px;"/>
            <path d="M812.78,652.83C812.778,652.83 812.776,652.83 812.774,652.83C812.259,652.83 811.834,652.406 811.834,651.89C811.834,651.833 811.84,651.776 811.85,651.72L823.17,591.96C823.18,591.904 823.186,591.847 823.186,591.79C823.186,591.274 822.761,590.85 822.246,590.85C822.244,590.85 822.242,590.85 822.24,590.85L813.61,590.91C813.164,590.917 812.781,591.241 812.7,591.68L799.55,661.04C799.54,661.096 799.534,661.153 799.534,661.21C799.534,661.726 799.959,662.15 800.474,662.15C800.476,662.15 800.478,662.15 800.48,662.15L825.85,661.97C826.296,661.963 826.679,661.639 826.76,661.2L828.16,653.83C828.17,653.774 828.176,653.717 828.176,653.66C828.176,653.144 827.751,652.72 827.236,652.72C827.234,652.72 827.232,652.72 827.23,652.72L812.78,652.83" style="fill:none;fill-rule:nonzero;stroke:rgb(59,61,56);stroke-width:2px;"/>
            <path d="M541.91,626.42C542.03,626.48 542.367,626.527 542.92,626.56C545.64,626.713 548.673,626.607 552.02,626.24C560.91,625.28 561.38,616.76 562.74,608.84C563.22,606.033 563.21,604.113 562.71,603.08C561.783,601.16 560.33,600.027 558.35,599.68C554.997,599.093 551.267,598.96 547.16,599.28C546.295,599.351 545.579,599.997 545.42,600.85L541.01,624.48C540.865,625.251 541.228,626.033 541.91,626.42" style="fill:none;fill-rule:nonzero;stroke:rgb(59,61,56);stroke-width:2px;"/>
            <path d="M776.83,602.5C776.257,601.687 775.703,601.697 775.17,602.53" style="fill:none;fill-rule:nonzero;stroke:rgb(177,178,174);stroke-width:2px;"/>
            <path d="M775.17,602.53C775.143,602.317 775.08,602.163 774.98,602.07C774.953,602.039 774.915,602.021 774.874,602.021C774.813,602.021 774.758,602.061 774.74,602.12L762.73,634.79C762.711,634.844 762.695,634.898 762.682,634.953C762.496,635.744 762.99,636.546 763.775,636.73C763.833,636.744 763.891,636.754 763.95,636.76C766.21,637.027 768.97,637.11 772.23,637.01C775.21,636.91 775.86,636.32 776.07,633.18C776.677,623.96 777.173,614.107 777.56,603.62C777.58,603.16 777.537,602.757 777.43,602.41C777.23,601.763 777.03,601.793 776.83,602.5" style="fill:none;fill-rule:nonzero;stroke:rgb(59,61,56);stroke-width:2px;"/>
            <path d="M775.17,602.53L763.4,635.43C763.379,635.488 763.368,635.549 763.368,635.61C763.368,635.895 763.603,636.13 763.888,636.13C763.889,636.13 763.889,636.13 763.89,636.13L773.82,636.13C774.568,636.131 775.193,635.537 775.23,634.79L776.83,602.5" style="fill:none;fill-rule:nonzero;stroke:rgb(137,136,133);stroke-width:2px;"/>
            <path d="M485.4,624.63C484.227,631.15 483.007,637.737 481.74,644.39C481.28,646.783 481.33,648.673 481.89,650.06C484.27,656 493.08,653.8 496.15,650.76C497.77,649.16 499.107,645.69 500.16,640.35C500.7,637.63 501.473,633.493 502.48,627.94C503.653,621.42 504.873,614.833 506.14,608.18C506.6,605.787 506.55,603.897 505.99,602.51C503.61,596.57 494.8,598.77 491.73,601.81C490.11,603.41 488.77,606.88 487.71,612.22C487.17,614.94 486.4,619.077 485.4,624.63" style="fill:none;fill-rule:nonzero;stroke:rgb(137,136,133);stroke-width:2px;"/>
            <path d="M541.95,625.76C544.57,625.673 547.073,625.61 549.46,625.57C555.39,625.47 558.67,623.76 560.04,617.91C561.36,612.237 562.087,608.13 562.22,605.59C562.373,602.69 560.983,600.97 558.05,600.43C555.203,599.903 551.59,599.75 547.21,599.97C546.76,599.994 546.382,600.322 546.3,600.76L541.63,625.39C541.628,625.402 541.626,625.414 541.625,625.425C541.612,625.595 541.745,625.746 541.92,625.759C541.93,625.76 541.94,625.76 541.95,625.76" style="fill:none;fill-rule:nonzero;stroke:rgb(137,136,133);stroke-width:2px;"/>
        </g>
        <g transform="matrix(1.2615,0,0,1.11216,-143.223,-88.7273)">
            <path d="M596.39,406.04C596.388,406.04 596.386,406.04 596.384,406.04C596.192,406.04 596.034,405.882 596.034,405.69C596.034,405.591 596.076,405.496 596.15,405.43C617.783,385.297 637.98,366.207 656.74,348.16C687.01,319.06 708.72,298.41 733.43,274.19C744.17,263.66 757.36,255.6 772.15,252.26C776.297,251.32 783.393,250.86 793.44,250.88C845.787,250.96 874.94,250.97 880.9,250.91C880.924,250.909 880.947,250.913 880.969,250.922C881.055,250.958 881.094,251.063 881.056,251.154C881.047,251.175 881.035,251.194 881.02,251.21C868.153,263.55 859.66,271.663 855.54,275.55C838.867,291.27 821.16,307.973 802.42,325.66C786.713,340.48 758.783,366.887 718.63,404.88C717.763,405.7 716.473,406.11 714.76,406.11C709.74,406.117 670.283,406.093 596.39,406.04Z" style="fill:rgb(249,33,36);fill-rule:nonzero;"/>
        </g>
        <g transform="matrix(1.2615,0,0,1.11216,-143.223,-88.7273)">
            <path d="M220.68,405.55C220.681,405.559 220.682,405.568 220.682,405.577C220.694,405.829 220.493,406.047 220.235,406.059C220.227,406.06 220.218,406.06 220.21,406.06L197.39,406.04C197.058,406.041 196.755,405.844 196.62,405.54C196.393,405.047 196.237,403.96 196.15,402.28C194.3,365.84 205.92,331.13 229.31,303.2C247.39,281.607 270.703,266.907 299.25,259.1C310.877,255.92 323.63,254.553 337.51,255C385.41,256.54 427.57,280.62 451.91,322.02C466.643,347.06 472.73,374.89 470.17,405.51C470.144,405.826 469.877,406.071 469.56,406.07L447.43,406.07C447.172,406.07 446.96,405.858 446.96,405.6C447.03,397.18 447.52,384.28 446.32,375.17C444.627,362.397 440.82,350.24 434.9,338.7C434.722,338.353 434.364,338.134 433.974,338.134C433.794,338.134 433.617,338.181 433.46,338.27L420.31,345.87C418.121,347.136 415.288,346.48 413.87,344.38L413.68,344.11C413.191,343.385 412.929,342.53 412.929,341.655C412.929,340.086 413.77,338.632 415.13,337.85L428.76,329.98C429.044,329.813 429.219,329.508 429.219,329.178C429.219,329.006 429.171,328.837 429.08,328.69C420.64,314.803 409.357,303.637 395.23,295.19C394.701,294.871 394.001,295.041 393.67,295.57C391.183,299.583 388.53,304.113 385.71,309.16C382.45,314.98 373.91,310.55 378.1,303.59C381.213,298.417 383.74,294.097 385.68,290.63C385.886,290.259 385.787,289.788 385.45,289.53C385.137,289.29 384.317,288.87 382.99,288.27C368.75,281.783 354.047,278.243 338.88,277.65C338.875,277.65 338.87,277.65 338.864,277.65C338.448,277.642 338.098,277.973 338.09,278.385C338.09,278.39 338.09,278.395 338.09,278.4L338.09,296.61C338.09,298.958 336.158,300.89 333.81,300.89L333.12,300.89C330.849,300.89 328.98,299.021 328.98,296.75L328.98,278.67C328.98,278.67 328.98,278.669 328.98,278.669C328.98,278.104 328.515,277.639 327.95,277.639C327.937,277.639 327.923,277.639 327.91,277.64C311.737,278.233 296.303,282.31 281.61,289.87C281.309,290.026 281.12,290.338 281.12,290.678C281.12,290.836 281.161,290.992 281.24,291.13L289.54,305.5C289.915,306.149 290.112,306.886 290.112,307.635C290.112,309.246 289.2,310.726 287.76,311.45L287.3,311.68C285.162,312.761 282.518,311.974 281.32,309.9L273.12,295.7C272.969,295.435 272.686,295.27 272.381,295.27C272.222,295.27 272.065,295.315 271.93,295.4C258.643,303.833 247.81,314.6 239.43,327.7C239.281,327.933 239.201,328.205 239.201,328.482C239.201,329.001 239.48,329.482 239.93,329.74L253.77,337.73C255.183,338.545 256.056,340.057 256.056,341.688C256.056,342.565 255.804,343.423 255.33,344.16L255.14,344.46C253.796,346.577 250.968,347.247 248.81,345.96L234.42,337.32C234.283,337.238 234.126,337.194 233.966,337.194C233.642,337.194 233.343,337.374 233.19,337.66C225.503,352.047 221.09,367.553 219.95,384.18C219.948,384.2 219.948,384.22 219.948,384.24C219.948,384.673 220.304,385.03 220.738,385.03C220.738,385.03 220.739,385.03 220.74,385.03L236.39,385.03C238.87,385.03 240.91,387.07 240.91,389.55L240.91,390.06C240.91,392.594 238.824,394.68 236.29,394.68L220.49,394.68C220.478,394.68 220.467,394.68 220.455,394.681C220.055,394.698 219.741,395.046 219.758,395.452C219.759,395.461 219.759,395.471 219.76,395.48L220.68,405.55Z" style="fill:rgb(19,19,15);fill-rule:nonzero;"/>
        </g>
        <g transform="matrix(1.2615,0,0,1.11216,-143.223,-88.7273)">
            <path d="M352.27,390.56C350.897,381.827 346.627,375.883 339.46,372.73C339.14,372.59 338.87,372.277 338.65,371.79L338.98,371.32C339.265,370.923 339.613,370.575 340.01,370.29L411.79,319.22C411.839,319.19 411.895,319.175 411.952,319.175C412.122,319.175 412.262,319.314 412.262,319.485C412.262,319.551 412.24,319.616 412.2,319.67L352.27,390.56Z" style="fill:rgb(249,33,36);fill-rule:nonzero;"/>
        </g>
        <g transform="matrix(1.2615,0,0,1.11216,-143.223,-88.7273)">
            <path d="M338.65,371.79C338.87,372.277 339.14,372.59 339.46,372.73C346.627,375.883 350.897,381.827 352.27,390.56C351.817,393.347 351.443,395.283 351.15,396.37C348.99,404.35 341.13,410.09 333.72,410.59C327.46,411.01 322.133,409.263 317.74,405.35C310.41,398.83 309.67,386.29 316.45,378.69C321.803,372.69 328.697,370.487 337.13,372.08C337.54,372.16 338.28,371.98 338.65,371.79Z" style="fill:rgb(19,19,15);fill-rule:nonzero;"/>
        </g>
        <g transform="matrix(1.2615,0,0,1.11216,-143.223,-88.7273)">
            <path d="M222.58,501.21C220.927,510.817 219.203,520.823 217.41,531.23C215.19,544.1 210.2,555.04 198.13,561.17C189.79,565.4 181.32,566.19 171.08,566.14C154.99,566.07 140.23,560.69 140.18,541.81C140.173,538.51 140.66,534.06 141.64,528.46C144.66,511.287 146.927,498.297 148.44,489.49C150.093,479.883 151.817,469.877 153.61,459.47C155.83,446.6 160.82,435.66 172.89,429.53C181.23,425.3 189.7,424.51 199.94,424.56C216.03,424.63 230.79,430.01 230.84,448.89C230.847,452.19 230.36,456.64 229.38,462.24C226.36,479.413 224.093,492.403 222.58,501.21ZM175.29,493.64C173.09,505.74 170.927,517.99 168.8,530.39C167.97,535.22 167,540.87 172.86,542.37C179.69,544.12 187.93,541.88 189.49,533.98C190.93,526.71 192.84,514.39 195.96,497.24C198.16,485.14 200.323,472.89 202.45,460.49C203.28,455.66 204.25,450.01 198.39,448.51C191.56,446.76 183.32,449 181.76,456.9C180.33,464.17 178.41,476.49 175.29,493.64Z" style="fill:rgb(19,19,15);fill-rule:nonzero;"/>
        </g>
        <g transform="matrix(1.2615,0,0,1.11216,-143.223,-88.7273)">
            <path d="M266.34,528.1C266.533,528.047 266.63,527.957 266.63,527.83C266.623,527.65 277.753,494.017 300.02,426.93C300.225,426.312 300.803,425.892 301.45,425.89L327.88,425.8C327.914,425.8 327.949,425.804 327.983,425.809C328.329,425.869 328.565,426.199 328.506,426.539C328.5,426.573 328.492,426.607 328.48,426.64L278.91,562.98C278.689,563.578 278.117,563.978 277.48,563.98L242.87,564.1C242.438,564.1 242.081,563.75 242.08,563.323C242.08,563.322 242.08,563.321 242.08,563.32L241.6,426.54C241.6,426.271 241.821,426.05 242.09,426.05L269.6,425.95C269.604,425.95 269.607,425.95 269.611,425.95C269.923,425.95 270.181,426.207 270.181,426.52C270.181,426.53 270.181,426.54 270.18,426.55L266.07,527.89C266.07,527.893 266.07,527.896 266.07,527.899C266.07,528.014 266.165,528.109 266.28,528.109C266.3,528.109 266.32,528.106 266.34,528.1Z" style="fill:rgb(19,19,15);fill-rule:nonzero;"/>
        </g>
        <g transform="matrix(1.2615,0,0,1.11216,-143.223,-88.7273)">
            <path d="M399.61,425.91C399.631,425.91 399.653,425.911 399.674,425.913C400.078,425.947 400.383,426.304 400.349,426.703C400.347,426.726 400.344,426.748 400.34,426.77L396.44,448.83C396.377,449.204 396.049,449.48 395.67,449.48L362.84,449.48C362.632,449.481 362.454,449.63 362.42,449.83L356.72,482.13C356.717,482.148 356.714,482.167 356.713,482.185C356.682,482.541 356.945,482.858 357.295,482.888C357.313,482.889 357.332,482.89 357.35,482.89L385.62,482.89C385.62,482.89 385.621,482.89 385.621,482.89C385.978,482.89 386.271,483.183 386.271,483.54C386.271,483.58 386.267,483.62 386.26,483.66L382.36,505.77C382.234,506.49 381.606,507.02 380.88,507.02L353.66,507.02C353.095,507.021 352.605,507.43 352.5,507.99L347.05,538.88C347.041,538.93 347.037,538.98 347.037,539.03C347.037,539.502 347.425,539.89 347.897,539.89C347.898,539.89 347.899,539.89 347.9,539.89L380,539.89C380.34,539.89 380.62,540.17 380.62,540.51C380.62,540.547 380.617,540.584 380.61,540.62L376.62,563.24C376.538,563.697 376.139,564.032 375.68,564.03L316.4,564.03C316.007,564.031 315.668,563.747 315.6,563.36C315.507,562.82 315.6,561.733 315.88,560.1C319.08,541.247 326.75,496.923 338.89,427.13C339.011,426.428 339.622,425.91 340.33,425.91L399.61,425.91Z" style="fill:rgb(19,19,15);fill-rule:nonzero;"/>
        </g>
        <g transform="matrix(1.2615,0,0,1.11216,-143.223,-88.7273)">
            <path d="M472.4,563.48C472.404,563.506 472.406,563.533 472.406,563.56C472.406,563.838 472.178,564.068 471.9,564.07L444.91,564.07C444.364,564.072 443.901,563.648 443.85,563.1L439.56,516.01C439.514,515.48 439.067,515.068 438.54,515.07L429.04,515.07C428.736,515.07 428.473,515.291 428.42,515.59L420.07,562.9C419.949,563.575 419.356,564.071 418.67,564.07L393.34,564.07C393.317,564.07 393.293,564.069 393.27,564.067C392.844,564.03 392.524,563.644 392.562,563.212C392.564,563.191 392.567,563.171 392.57,563.15L416.56,427.27C416.704,426.47 417.407,425.882 418.22,425.88C437.213,425.907 448.473,425.917 452,425.91C466.22,425.88 486.57,427.3 488,446.04C488.273,449.573 488.07,453.207 487.39,456.94C484.81,471.147 482.843,481.663 481.49,488.49C479.47,498.663 473.83,505.873 464.57,510.12C464.198,510.289 463.984,510.692 464.05,511.1L472.4,563.48ZM432.9,493.34C437.96,493.5 442.27,493.353 445.83,492.9C453.67,491.91 455.44,487.11 456.81,479.39C458.563,469.503 459.72,462.627 460.28,458.76C461.26,452.03 459.65,449.1 452.62,448.83C449.78,448.717 445.88,448.67 440.92,448.69C440.546,448.69 440.223,448.967 440.16,449.34L432.48,492.82C432.475,492.846 432.473,492.873 432.473,492.9C432.473,493.137 432.663,493.333 432.9,493.34Z" style="fill:rgb(19,19,15);fill-rule:nonzero;"/>
        </g>
        <g transform="matrix(1.2615,0,0,1.11216,-143.223,-88.7273)">
            <path d="M486.85,563.85C486.147,563.705 485.682,563.016 485.81,562.31L509.67,427.13C509.795,426.417 510.427,425.892 511.16,425.89C531.793,425.91 543.157,425.917 545.25,425.91C552.64,425.9 560.14,426.19 566.9,428.45C580.59,433.03 582.25,446.09 580.05,458.52C572.377,501.847 567.903,526.96 566.63,533.86C565.523,539.833 563.333,545.21 560.06,549.99C549.9,564.85 531.18,564.09 515.33,564.06C501.563,564.047 493.453,564.06 491,564.1C489.18,564.127 487.797,564.043 486.85,563.85ZM533.25,449.22L517.28,539.67C517.271,539.723 517.266,539.777 517.266,539.831C517.266,540.322 517.659,540.731 518.15,540.75C522.757,540.93 526.87,540.767 530.49,540.26C536.69,539.38 539.32,535.03 540.32,529.31C548.027,485.223 552.137,461.793 552.65,459.02C554.86,447.07 542.03,448.2 534.02,448.54C533.637,448.558 533.315,448.842 533.25,449.22Z" style="fill:rgb(19,19,15);fill-rule:nonzero;"/>
        </g>
        <g transform="matrix(1.2615,0,0,1.11216,-143.223,-88.7273)">
            <path d="M658.41,563.62C658.413,563.64 658.415,563.66 658.415,563.68C658.415,563.883 658.248,564.05 658.045,564.05C658.043,564.05 658.042,564.05 658.04,564.05L630.74,564.05C630.343,564.051 630.006,563.741 629.97,563.34L625.65,515.9C625.609,515.421 625.206,515.049 624.73,515.05L614.87,515.05C614.488,515.049 614.158,515.324 614.09,515.7L605.72,563.13C605.628,563.664 605.157,564.059 604.61,564.06L579.05,564.06C579.022,564.06 578.994,564.059 578.965,564.057C578.441,564.013 578.045,563.54 578.09,563.01C578.092,562.983 578.096,562.956 578.1,562.93L602.15,426.76C602.232,426.287 602.646,425.937 603.13,425.93C617.537,425.79 631.237,425.817 644.23,426.01C656.94,426.19 672.01,429.81 673.88,444.63C674.26,447.597 674.063,451.41 673.29,456.07C672.643,460.003 671.277,467.647 669.19,479C666.45,493.91 664.45,503.56 651.26,509.47C650.441,509.842 649.967,510.715 650.11,511.59L658.41,563.62ZM618.64,493.03C623.667,493.177 627.947,493.02 631.48,492.56C639.27,491.56 641.01,486.79 642.35,479.12C644.07,469.3 645.203,462.467 645.75,458.62C646.71,451.94 645.1,449.03 638.12,448.78C635.3,448.673 631.427,448.637 626.5,448.67C626.128,448.671 625.809,448.948 625.75,449.32L618.22,492.52C618.218,492.53 618.217,492.539 618.216,492.549C618.193,492.789 618.367,493.005 618.602,493.028C618.615,493.029 618.627,493.03 618.64,493.03Z" style="fill:rgb(19,19,15);fill-rule:nonzero;"/>
        </g>
        <g transform="matrix(1.2615,0,0,1.11216,-143.223,-88.7273)">
            <path d="M699.19,564.13L673.83,564.13C673.827,564.13 673.824,564.13 673.821,564.13C673.174,564.13 672.641,563.597 672.641,562.95C672.641,562.88 672.647,562.809 672.66,562.74L696.65,426.88C696.751,426.321 697.242,425.911 697.81,425.91L723.17,425.91C723.173,425.91 723.176,425.91 723.179,425.91C723.826,425.91 724.359,426.443 724.359,427.09C724.359,427.16 724.353,427.231 724.34,427.3L700.35,563.16C700.249,563.719 699.758,564.129 699.19,564.13Z" style="fill:rgb(19,19,15);fill-rule:nonzero;"/>
        </g>
        <g transform="matrix(1.2615,0,0,1.11216,-143.223,-88.7273)">
            <path d="M762.4,528.14C762.593,528.087 762.69,527.997 762.69,527.87C762.683,527.69 773.95,494.043 796.49,426.93C796.699,426.311 797.28,425.891 797.93,425.89L824.4,425.89C824.436,425.89 824.473,425.894 824.509,425.9C824.854,425.961 825.09,426.291 825.03,426.631C825.023,426.668 825.013,426.705 825,426.74L774.87,563.12C774.649,563.719 774.072,564.119 773.43,564.12L738.77,564.12C738.337,564.12 737.98,563.768 737.98,563.34L737.98,426.33C737.98,426.061 738.201,425.84 738.47,425.84L766.03,425.84C766.03,425.84 766.031,425.84 766.031,425.84C766.343,425.84 766.601,426.097 766.601,426.41C766.601,426.42 766.601,426.43 766.6,426.44L762.13,527.93C762.13,527.933 762.13,527.936 762.13,527.939C762.13,528.054 762.225,528.149 762.34,528.149C762.36,528.149 762.38,528.146 762.4,528.14Z" style="fill:rgb(19,19,15);fill-rule:nonzero;"/>
        </g>
        <g transform="matrix(1.2615,0,0,1.11216,-143.223,-88.7273)">
            <path d="M898.54,426.03C898.563,426.03 898.586,426.031 898.61,426.033C899.014,426.07 899.317,426.428 899.28,426.827C899.278,426.852 899.275,426.876 899.27,426.9L895.26,448.97C895.197,449.344 894.869,449.62 894.49,449.62L861.61,449.46C861.402,449.461 861.224,449.61 861.19,449.81L855.33,482.13C855.327,482.147 855.325,482.165 855.323,482.182C855.291,482.537 855.552,482.856 855.902,482.887C855.918,482.889 855.934,482.89 855.95,482.89L884.26,483.03C884.26,483.03 884.261,483.03 884.261,483.03C884.618,483.03 884.911,483.323 884.911,483.68C884.911,483.72 884.907,483.76 884.9,483.8L880.89,505.93C880.759,506.65 880.127,507.176 879.4,507.17L852.14,507.04C851.575,507.041 851.085,507.45 850.98,508.01L845.37,538.91C845.36,538.963 845.355,539.016 845.355,539.07C845.355,539.542 845.743,539.93 846.215,539.93C846.217,539.93 846.218,539.93 846.22,539.93L878.37,540.08C878.707,540.084 878.982,540.363 878.982,540.7C878.982,540.74 878.978,540.78 878.97,540.82L874.87,563.45C874.788,563.907 874.385,564.243 873.92,564.24L814.56,563.95C814.167,563.951 813.828,563.667 813.76,563.28C813.673,562.74 813.773,561.653 814.06,560.02C817.353,541.153 825.243,496.803 837.73,426.97C837.852,426.264 838.469,425.745 839.18,425.75L898.54,426.03Z" style="fill:rgb(19,19,15);fill-rule:nonzero;"/>
        </g>
        <g transform="matrix(1.2615,0,0,1.11216,-143.223,-88.7273)">
            <path d="M849.11,642.3C849.15,642.3 849.19,642.305 849.229,642.312C849.568,642.38 849.792,642.71 849.726,643.044C849.718,643.084 849.706,643.123 849.69,643.16C848.763,645.36 848.633,647.66 849.3,650.06C849.933,652.327 851.647,653.537 854.44,653.69C862.04,654.1 865.64,647.03 865,640.28C864.82,638.44 863.13,635.95 861.55,634.52C857.59,630.94 852.1,626.95 847.82,622.37C844.853,619.203 843.673,615.15 844.28,610.21C845.44,600.72 849.34,592.58 859.09,589.66C864.683,587.98 870.237,587.933 875.75,589.52C885.42,592.29 884.19,601.58 882.38,609.98C882.31,610.301 882.029,610.531 881.71,610.53L871.22,610.53C870.947,610.528 870.724,610.303 870.724,610.03C870.724,610.003 870.726,609.976 870.73,609.95C871.29,606.14 872.33,601.11 868.65,599.59C864.49,597.88 859.58,599.23 857.68,603.66C855.73,608.21 855.9,612.4 859.8,615.98C860.873,616.96 864.357,619.897 870.25,624.79C875.79,629.38 878.88,634.47 877.56,642.03C876.967,645.45 876.31,648.127 875.59,650.06C871.58,660.74 861.49,665.11 850.6,664.61C841.51,664.2 835.02,658.71 836.28,649.03C836.48,647.497 836.797,645.433 837.23,642.84C837.283,642.53 837.555,642.3 837.87,642.3L849.11,642.3ZM848.44,643.87C848.441,643.861 848.441,643.852 848.441,643.843C848.454,643.476 848.167,643.163 847.805,643.15C847.797,643.15 847.788,643.15 847.78,643.15L839.02,643.15C838.394,643.15 837.86,643.619 837.78,644.24C837.333,647.653 837.097,649.713 837.07,650.42C836.42,665.53 853.71,665.55 863.82,661.52C868.087,659.813 871.287,656.94 873.42,652.9C876.04,647.95 878.18,639.36 876.28,633.9C875.34,631.173 873.53,628.667 870.85,626.38C865.85,622.12 862.603,619.433 861.11,618.32C855.923,614.453 854.413,609.78 856.58,604.3C858.3,599.96 861.67,597.53 866.24,598.03C871.127,598.557 872.97,601.99 871.77,608.33C871.758,608.396 871.751,608.463 871.751,608.53C871.751,609.122 872.238,609.609 872.83,609.61L880.2,609.61C880.928,609.61 881.575,609.13 881.79,608.43C882.903,604.65 883.123,600.853 882.45,597.04C882.383,596.674 882.28,596.319 882.14,595.98C880.853,592.92 878.37,590.95 874.69,590.07C865.41,587.85 853.39,589.88 848.52,598.94C846.433,602.813 845.283,607.16 845.07,611.98C844.85,616.88 846.82,621.067 850.98,624.54C851.06,624.607 854.217,627.263 860.45,632.51C863.657,635.21 865.42,637.883 865.74,640.53C866.65,648.14 860.82,656.71 852.26,654.13C847.37,652.66 848.2,647.36 848.44,643.87Z" style="fill:rgb(19,19,15);fill-rule:nonzero;"/>
        </g>
        <g transform="matrix(1.2615,0,0,1.11216,-143.223,-88.7273)">
            <path d="M473.6,623.02C474.34,618.747 475.117,614.457 475.93,610.15C477.06,604.2 479.23,598.34 483.7,594.08C489.42,588.62 500.15,587.63 507.66,588.99C518.63,590.97 519.95,600.3 518.16,609.55C515.78,621.843 514.477,628.637 514.25,629.93C513.51,634.203 512.733,638.493 511.92,642.8C510.79,648.75 508.62,654.61 504.15,658.87C498.43,664.33 487.7,665.32 480.19,663.96C469.22,661.98 467.9,652.65 469.69,643.39C472.07,631.097 473.373,624.307 473.6,623.02ZM474.58,622.78C473.407,629.147 472.153,635.507 470.82,641.86C468.87,651.18 469.01,661.26 480.72,663.23C488.61,664.56 500.46,663.07 505.52,656.29C507.867,653.143 509.47,649.637 510.33,645.77C510.857,643.403 511.857,638.213 513.33,630.2C514.503,623.84 515.757,617.48 517.09,611.12C519.04,601.81 518.9,591.73 507.19,589.76C499.3,588.43 487.45,589.92 482.39,596.7C480.043,599.847 478.44,603.353 477.58,607.22C477.053,609.587 476.053,614.773 474.58,622.78Z" style="fill:rgb(19,19,15);fill-rule:nonzero;"/>
        </g>
        <g transform="matrix(1.2615,0,0,1.11216,-143.223,-88.7273)">
            <path d="M644.08,610.04C644.14,609.64 644.313,608.683 644.6,607.17C645.647,601.743 643.527,598.993 638.24,598.92C629.71,598.8 627.83,604.12 626.33,611.97C622.397,632.583 620.343,643.66 620.17,645.2C619.49,651.2 623.3,654.57 629.09,653.64C634.8,652.71 637.13,648.5 638.4,642.69C638.94,640.203 639.503,637.33 640.09,634.07C640.1,634.017 640.105,633.964 640.105,633.91C640.105,633.429 639.711,633.033 639.23,633.03L633.81,633.03C633.252,633.028 632.794,632.568 632.794,632.01C632.794,631.95 632.799,631.889 632.81,631.83L633.94,625.4C634.079,624.634 634.752,624.072 635.53,624.07L653.18,624.07C653.188,624.07 653.197,624.07 653.205,624.071C653.33,624.082 653.424,624.199 653.413,624.33C653.412,624.337 653.411,624.343 653.41,624.35C652.29,630.463 651.283,636.033 650.39,641.06C648.49,651.69 644.98,659.9 634.95,663.1C629.61,664.807 624.12,665.053 618.48,663.84C608.47,661.68 606.68,653.05 608.22,644.24C608.6,642.073 610.46,631.99 613.8,613.99C615.187,606.543 616.81,601.387 618.67,598.52C622.29,592.947 627.67,589.723 634.81,588.85C639.363,588.297 643.473,588.38 647.14,589.1C658.58,591.35 657.51,601.47 655.25,610.06C655.169,610.359 654.894,610.568 654.58,610.57L644.55,610.57C644.549,610.57 644.547,610.57 644.546,610.57C644.288,610.57 644.076,610.358 644.076,610.1C644.076,610.08 644.077,610.06 644.08,610.04ZM646.12,609.65L653.43,609.59C654.058,609.589 654.609,609.154 654.76,608.54C656.37,601.82 657.41,592.97 648.98,590.54C642.673,588.727 636.177,588.9 629.49,591.06C621.2,593.75 617.22,600.95 615.69,609.01C611.57,630.763 609.317,642.843 608.93,645.25C608.583,647.41 608.55,649.767 608.83,652.32C610.06,663.3 620.69,664.48 629.77,663.36C643.38,661.67 647.38,653.09 649.6,641.12C650.24,637.627 651.147,632.507 652.32,625.76C652.328,625.714 652.332,625.667 652.332,625.62C652.332,625.165 651.957,624.79 651.502,624.79C651.498,624.79 651.494,624.79 651.49,624.79L635.83,624.9C635.263,624.905 634.776,625.316 634.68,625.87L633.74,631.22C633.736,631.239 633.734,631.259 633.731,631.278C633.681,631.725 634.012,632.135 634.465,632.186C634.483,632.188 634.502,632.189 634.52,632.19L639.64,632.41C639.651,632.41 639.661,632.411 639.672,632.412C640.312,632.459 640.8,633.029 640.752,633.674C640.752,633.683 640.751,633.691 640.75,633.7C640.317,638.127 639.483,642.293 638.25,646.2C636.31,652.33 629.74,656.52 623.66,653.86C618.77,651.71 618.99,646.69 619.84,642.09C623.287,623.243 625.45,611.9 626.33,608.06C627.977,600.813 632.4,597.527 639.6,598.2C644.727,598.687 646.607,602.143 645.24,608.57C645.234,608.6 645.229,608.631 645.226,608.662C645.177,609.153 645.536,609.597 646.022,609.646C646.055,609.649 646.087,609.65 646.12,609.65Z" style="fill:rgb(19,19,15);fill-rule:nonzero;"/>
        </g>
        <g transform="matrix(1.2615,0,0,1.11216,-143.223,-88.7273)">
            <path d="M461.87,589.61C456.063,594.997 444.55,605.657 427.33,621.59C417.163,630.997 382.823,663.32 324.31,718.56C311.23,730.913 299.33,742.013 288.61,751.86C277.65,761.92 263.93,769.25 249.5,771.87C245.113,772.663 239.413,773.043 232.4,773.01C219.847,772.943 208.37,772.95 197.97,773.03C197.966,773.03 197.962,773.03 197.958,773.03C197.76,773.03 197.598,772.868 197.598,772.67C197.598,772.567 197.642,772.468 197.72,772.4C248.973,725.033 304.323,673.66 363.77,618.28C367.443,614.86 371.857,611.033 377.01,606.8C391.61,594.833 408.437,588.857 427.49,588.87C432.29,588.87 443.657,588.887 461.59,588.92C461.592,588.92 461.593,588.92 461.595,588.92C461.814,588.92 461.995,589.101 461.995,589.32C461.995,589.43 461.949,589.535 461.87,589.61Z" style="fill:rgb(0,182,190);fill-rule:nonzero;"/>
        </g>
        <g transform="matrix(1.2615,0,0,1.11216,-143.223,-88.7273)">
            <path d="M646.12,609.65C646.087,609.65 646.055,609.649 646.022,609.646C645.536,609.597 645.177,609.153 645.226,608.662C645.229,608.631 645.234,608.6 645.24,608.57C646.607,602.143 644.727,598.687 639.6,598.2C632.4,597.527 627.977,600.813 626.33,608.06C625.45,611.9 623.287,623.243 619.84,642.09C618.99,646.69 618.77,651.71 623.66,653.86C629.74,656.52 636.31,652.33 638.25,646.2C639.483,642.293 640.317,638.127 640.75,633.7C640.751,633.691 640.752,633.683 640.752,633.674C640.8,633.029 640.312,632.459 639.672,632.412C639.661,632.411 639.651,632.41 639.64,632.41L634.52,632.19C634.502,632.189 634.483,632.188 634.465,632.186C634.012,632.135 633.681,631.725 633.731,631.278C633.734,631.259 633.736,631.239 633.74,631.22L634.68,625.87C634.776,625.316 635.263,624.905 635.83,624.9L651.49,624.79C651.494,624.79 651.498,624.79 651.502,624.79C651.957,624.79 652.332,625.165 652.332,625.62C652.332,625.667 652.328,625.714 652.32,625.76C651.147,632.507 650.24,637.627 649.6,641.12C647.38,653.09 643.38,661.67 629.77,663.36C620.69,664.48 610.06,663.3 608.83,652.32C608.55,649.767 608.583,647.41 608.93,645.25C609.317,642.843 611.57,630.763 615.69,609.01C617.22,600.95 621.2,593.75 629.49,591.06C636.177,588.9 642.673,588.727 648.98,590.54C657.41,592.97 656.37,601.82 654.76,608.54C654.609,609.154 654.058,609.589 653.43,609.59L646.12,609.65Z" style="fill:rgb(99,102,97);fill-rule:nonzero;"/>
        </g>
        <g transform="matrix(1.2615,0,0,1.11216,-143.223,-88.7273)">
            <path d="M848.44,643.87C848.2,647.36 847.37,652.66 852.26,654.13C860.82,656.71 866.65,648.14 865.74,640.53C865.42,637.883 863.657,635.21 860.45,632.51C854.217,627.263 851.06,624.607 850.98,624.54C846.82,621.067 844.85,616.88 845.07,611.98C845.283,607.16 846.433,602.813 848.52,598.94C853.39,589.88 865.41,587.85 874.69,590.07C878.37,590.95 880.853,592.92 882.14,595.98C882.28,596.319 882.383,596.674 882.45,597.04C883.123,600.853 882.903,604.65 881.79,608.43C881.575,609.13 880.928,609.61 880.2,609.61L872.83,609.61C872.238,609.609 871.751,609.122 871.751,608.53C871.751,608.463 871.758,608.396 871.77,608.33C872.97,601.99 871.127,598.557 866.24,598.03C861.67,597.53 858.3,599.96 856.58,604.3C854.413,609.78 855.923,614.453 861.11,618.32C862.603,619.433 865.85,622.12 870.85,626.38C873.53,628.667 875.34,631.173 876.28,633.9C878.18,639.36 876.04,647.95 873.42,652.9C871.287,656.94 868.087,659.813 863.82,661.52C853.71,665.55 836.42,665.53 837.07,650.42C837.097,649.713 837.333,647.653 837.78,644.24C837.86,643.619 838.394,643.15 839.02,643.15L847.78,643.15C847.788,643.15 847.797,643.15 847.805,643.15C848.167,643.163 848.454,643.476 848.441,643.843C848.441,643.852 848.441,643.861 848.44,643.87Z" style="fill:rgb(99,102,97);fill-rule:nonzero;"/>
        </g>
        <g transform="matrix(1.2615,0,0,1.11216,-143.223,-88.7273)">
            <path d="M474.58,622.78C476.053,614.773 477.053,609.587 477.58,607.22C478.44,603.353 480.043,599.847 482.39,596.7C487.45,589.92 499.3,588.43 507.19,589.76C518.9,591.73 519.04,601.81 517.09,611.12C515.757,617.48 514.503,623.84 513.33,630.2C511.857,638.213 510.857,643.403 510.33,645.77C509.47,649.637 507.867,653.143 505.52,656.29C500.46,663.07 488.61,664.56 480.72,663.23C469.01,661.26 468.87,651.18 470.82,641.86C472.153,635.507 473.407,629.147 474.58,622.78ZM484.65,624.27C483.25,631.91 482.197,637.4 481.49,640.74C481.043,642.86 480.76,644.853 480.64,646.72C480.12,654.95 489.25,656.37 494.59,652.83C497.697,650.77 499.613,647.83 500.34,644.01C501.347,638.717 502.327,633.463 503.28,628.25C504.687,620.617 505.743,615.13 506.45,611.79C506.897,609.67 507.18,607.677 507.3,605.81C507.82,597.58 498.69,596.16 493.35,599.7C490.243,601.76 488.327,604.697 487.6,608.51C486.593,613.81 485.61,619.063 484.65,624.27Z" style="fill:rgb(99,102,97);fill-rule:nonzero;"/>
        </g>
        <g transform="matrix(1.2615,0,0,1.11216,-143.223,-88.7273)">
            <path d="M522.36,662.54L535.94,590.87C536.036,590.345 536.502,589.96 537.04,589.96C544.613,589.913 551.933,589.943 559,590.05C567.41,590.18 575.52,592.03 574.65,602.79C574.33,606.81 573.443,612.13 571.99,618.75C570.55,625.35 568.56,631.12 561.86,633.33C561.211,633.541 560.807,634.201 560.91,634.88L565.29,662.33C565.294,662.356 565.296,662.383 565.296,662.41C565.296,662.688 565.068,662.918 564.79,662.92L552.55,663.01C552.35,663.011 552.18,662.859 552.16,662.66L548.86,636.29C548.825,636.021 548.596,635.818 548.33,635.82L540.4,635.88C539.924,635.886 539.516,636.227 539.43,636.69L534.5,662.68C534.476,662.825 534.352,662.931 534.21,662.93L522.76,663.02C522.537,663.018 522.354,662.833 522.354,662.61C522.354,662.587 522.356,662.563 522.36,662.54ZM523.89,662.06L533.09,661.99C533.542,661.984 533.929,661.66 534.01,661.22C535.45,653.113 536.937,645.207 538.47,637.5C538.75,636.113 539.55,635.36 540.87,635.24C542.703,635.08 545.12,634.963 548.12,634.89C548.929,634.873 549.628,635.477 549.73,636.28L552.83,661.07C552.905,661.654 553.406,662.094 553.99,662.09L563.67,662.02C563.687,662.02 563.703,662.019 563.72,662.018C564.053,661.989 564.304,661.696 564.276,661.368C564.275,661.352 564.273,661.336 564.27,661.32L560.16,635.56C559.953,634.27 560.701,633.003 561.93,632.56C565.557,631.26 568.01,628.75 569.29,625.03C571.323,619.103 572.83,611.843 573.81,603.25C575.13,591.7 565.6,590.96 557.25,590.87C556.45,590.857 549.943,590.797 537.73,590.69C537.226,590.69 536.791,591.05 536.7,591.54L523.44,661.51C523.438,661.523 523.436,661.536 523.435,661.548C523.412,661.805 523.599,662.035 523.85,662.058C523.864,662.059 523.877,662.06 523.89,662.06Z" style="fill:rgb(19,19,15);fill-rule:nonzero;"/>
        </g>
        <g transform="matrix(1.2615,0,0,1.11216,-143.223,-88.7273)">
            <path d="M590.65,663.05L579.75,663.05C579.749,663.05 579.749,663.05 579.748,663.05C579.403,663.05 579.118,662.766 579.118,662.42C579.118,662.38 579.122,662.34 579.13,662.3L592.74,590.51C592.797,590.214 593.059,589.999 593.36,590L604.25,590C604.251,590 604.251,590 604.252,590C604.597,590 604.882,590.284 604.882,590.63C604.882,590.67 604.878,590.71 604.87,590.75L591.27,662.54C591.213,662.836 590.951,663.051 590.65,663.05ZM594.33,590.7C593.903,590.697 593.531,591.001 593.45,591.42L580.27,660.96C580.259,661.016 580.254,661.073 580.254,661.13C580.254,661.617 580.653,662.018 581.14,662.02L589.8,662.02C590.227,662.023 590.599,661.719 590.68,661.3L603.85,591.76C603.861,591.704 603.866,591.647 603.866,591.59C603.866,591.103 603.467,590.702 602.98,590.7L594.33,590.7Z" style="fill:rgb(19,19,15);fill-rule:nonzero;"/>
        </g>
        <g transform="matrix(1.2615,0,0,1.11216,-143.223,-88.7273)">
            <path d="M672.11,663.05L660.92,663.05C660.657,663.049 660.441,662.833 660.441,662.57C660.441,662.54 660.444,662.51 660.45,662.48L674.1,590.44C674.143,590.215 674.341,590.051 674.57,590.05L685.76,590.05C686.023,590.051 686.239,590.267 686.239,590.53C686.239,590.56 686.236,590.59 686.23,590.62L672.58,662.66C672.537,662.885 672.339,663.049 672.11,663.05ZM675.65,590.89C675.223,590.887 674.851,591.191 674.77,591.61L661.62,661.05C661.609,661.106 661.604,661.163 661.604,661.22C661.604,661.707 662.003,662.108 662.49,662.11L671.12,662.11C671.547,662.113 671.919,661.809 672,661.39L685.16,591.95C685.171,591.894 685.176,591.837 685.176,591.78C685.176,591.293 684.777,590.892 684.29,590.89L675.65,590.89Z" style="fill:rgb(19,19,15);fill-rule:nonzero;"/>
        </g>
        <g transform="matrix(1.2615,0,0,1.11216,-143.223,-88.7273)">
            <path d="M709.04,614.51C709.987,616.423 710.63,618.44 710.97,620.56C713.163,634.073 715.427,647.583 717.76,661.09C717.858,661.681 718.381,662.12 718.99,662.12L729.37,662.04C729.722,662.041 730.027,661.787 730.09,661.44L743.27,591.87C743.275,591.841 743.279,591.812 743.282,591.783C743.328,591.269 742.947,590.809 742.439,590.764C742.41,590.761 742.38,590.76 742.35,590.76L733.87,590.82C733.389,590.826 732.974,591.174 732.88,591.65C728.81,613 726.05,625.47 724.9,635.47C724.793,636.397 724.61,637.047 724.35,637.42C724.096,637.784 723.679,638.001 723.235,638.001C722.564,638.001 721.988,637.504 721.89,636.84L715.01,592.18C714.882,591.373 714.177,590.775 713.36,590.78L702.27,590.86C701.867,590.859 701.517,591.155 701.44,591.56L688.24,661.18C688.23,661.229 688.226,661.28 688.226,661.33C688.226,661.763 688.582,662.12 689.016,662.12C689.017,662.12 689.019,662.12 689.02,662.12L697.59,662.05C698.123,662.049 698.584,661.664 698.68,661.14L707.25,614.81C707.255,614.786 707.276,614.77 707.3,614.77C707.5,614.783 707.597,614.88 707.59,615.06C707.597,616.493 707.553,617.47 707.46,617.99C704.887,632.03 702.137,646.897 699.21,662.59C699.163,662.816 698.961,662.98 698.73,662.98L687.62,662.98C687.335,662.98 687.1,662.745 687.1,662.46C687.1,662.426 687.104,662.393 687.11,662.36L700.69,590.68C700.771,590.27 701.132,589.972 701.55,589.97L714.83,589.97C715.167,589.971 715.456,590.218 715.51,590.55L722.98,637.35C723.017,637.554 723.196,637.704 723.403,637.704C723.599,637.704 723.772,637.57 723.82,637.38C724.42,634.96 724.31,632.13 724.8,629.51C727.1,617.23 729.577,604.25 732.23,590.57C732.301,590.21 732.618,589.949 732.98,589.95L743.68,589.95C743.68,589.95 743.681,589.95 743.681,589.95C744.043,589.95 744.341,590.248 744.341,590.61C744.341,590.65 744.337,590.69 744.33,590.73L730.71,662.62C730.668,662.823 730.487,662.97 730.28,662.97L717.78,662.97C717.436,662.97 717.138,662.72 717.08,662.38L709.04,614.51Z" style="fill:rgb(19,19,15);fill-rule:nonzero;"/>
        </g>
        <g transform="matrix(1.2615,0,0,1.11216,-143.223,-88.7273)">
            <path d="M740.47,662.49L769.4,590.92C769.496,590.675 769.677,590.473 769.91,590.35C770.55,590.01 771.66,589.863 773.24,589.91C777.733,590.03 782.103,590.073 786.35,590.04C786.352,590.04 786.354,590.04 786.355,590.04C786.734,590.037 787.047,590.342 787.05,590.715C787.05,590.717 787.05,590.718 787.05,590.72L787.58,662.39C787.58,662.67 787.354,662.9 787.08,662.9L775.78,662.98C775.778,662.98 775.776,662.98 775.774,662.98C775.418,662.983 775.122,662.696 775.12,662.345C775.12,662.343 775.12,662.342 775.12,662.34L775.01,646.9C775.005,646.366 774.564,645.93 774.03,645.93C774.027,645.93 774.023,645.93 774.02,645.93L760.63,646.03C760.17,646.031 759.754,646.308 759.58,646.73L753.26,662.38C753.133,662.699 752.823,662.91 752.48,662.91L740.82,663C740.798,663 740.776,662.997 740.754,662.993C740.549,662.955 740.412,662.759 740.45,662.559C740.454,662.535 740.461,662.512 740.47,662.49ZM770.87,590.97C770.519,590.972 770.203,591.186 770.07,591.51L742.01,660.95C741.967,661.055 741.945,661.167 741.945,661.28C741.945,661.757 742.338,662.15 742.815,662.15C742.817,662.15 742.818,662.15 742.82,662.15L751.98,662.08C752.331,662.078 752.647,661.864 752.78,661.54L759.13,645.82C759.263,645.496 759.579,645.282 759.93,645.28L774.86,645.17C774.863,645.17 774.867,645.17 774.87,645.17C775.344,645.17 775.735,645.557 775.74,646.03L775.84,661.25C775.845,661.723 776.236,662.11 776.71,662.11C776.713,662.11 776.717,662.11 776.72,662.11L785.82,662.05C786.293,662.045 786.68,661.654 786.68,661.18C786.68,661.177 786.68,661.173 786.68,661.17L786.18,591.72C786.175,591.247 785.784,590.86 785.31,590.86C785.307,590.86 785.303,590.86 785.3,590.86L770.87,590.97Z" style="fill:rgb(19,19,15);fill-rule:nonzero;"/>
        </g>
        <g transform="matrix(1.2615,0,0,1.11216,-143.223,-88.7273)">
            <path d="M812.55,589.97L823.79,589.97C824.058,589.971 824.278,590.192 824.278,590.46C824.278,590.49 824.276,590.52 824.27,590.55L812.73,651.45C812.724,651.48 812.722,651.51 812.722,651.54C812.722,651.808 812.942,652.029 813.21,652.03L828.77,652.03C829.038,652.031 829.258,652.252 829.258,652.52C829.258,652.55 829.256,652.58 829.25,652.61L827.37,662.56C827.326,662.794 827.118,662.964 826.88,662.96L798.9,662.96C798.632,662.959 798.412,662.738 798.412,662.47C798.412,662.44 798.414,662.41 798.42,662.38L812.06,590.37C812.104,590.136 812.312,589.966 812.55,589.97ZM812.78,652.83C812.778,652.83 812.776,652.83 812.774,652.83C812.259,652.83 811.834,652.406 811.834,651.89C811.834,651.833 811.84,651.776 811.85,651.72L823.17,591.96C823.18,591.904 823.186,591.847 823.186,591.79C823.186,591.274 822.761,590.85 822.246,590.85C822.244,590.85 822.242,590.85 822.24,590.85L813.61,590.91C813.164,590.917 812.781,591.241 812.7,591.68L799.55,661.04C799.54,661.096 799.534,661.153 799.534,661.21C799.534,661.726 799.959,662.15 800.474,662.15C800.476,662.15 800.478,662.15 800.48,662.15L825.85,661.97C826.296,661.963 826.679,661.639 826.76,661.2L828.16,653.83C828.17,653.774 828.176,653.717 828.176,653.66C828.176,653.144 827.751,652.72 827.236,652.72C827.234,652.72 827.232,652.72 827.23,652.72L812.78,652.83Z" style="fill:rgb(19,19,15);fill-rule:nonzero;"/>
        </g>
        <g transform="matrix(1.2615,0,0,1.11216,-143.223,-88.7273)">
            <path d="M523.89,662.06C523.877,662.06 523.864,662.059 523.85,662.058C523.599,662.035 523.412,661.805 523.435,661.548C523.436,661.536 523.438,661.523 523.44,661.51L536.7,591.54C536.791,591.05 537.226,590.69 537.73,590.69C549.943,590.797 556.45,590.857 557.25,590.87C565.6,590.96 575.13,591.7 573.81,603.25C572.83,611.843 571.323,619.103 569.29,625.03C568.01,628.75 565.557,631.26 561.93,632.56C560.701,633.003 559.953,634.27 560.16,635.56L564.27,661.32C564.273,661.336 564.275,661.352 564.276,661.368C564.304,661.696 564.053,661.989 563.72,662.018C563.703,662.019 563.687,662.02 563.67,662.02L553.99,662.09C553.406,662.094 552.905,661.654 552.83,661.07L549.73,636.28C549.628,635.477 548.929,634.873 548.12,634.89C545.12,634.963 542.703,635.08 540.87,635.24C539.55,635.36 538.75,636.113 538.47,637.5C536.937,645.207 535.45,653.113 534.01,661.22C533.929,661.66 533.542,661.984 533.09,661.99L523.89,662.06ZM541.91,626.42C542.03,626.48 542.367,626.527 542.92,626.56C545.64,626.713 548.673,626.607 552.02,626.24C560.91,625.28 561.38,616.76 562.74,608.84C563.22,606.033 563.21,604.113 562.71,603.08C561.783,601.16 560.33,600.027 558.35,599.68C554.997,599.093 551.267,598.96 547.16,599.28C546.295,599.351 545.579,599.997 545.42,600.85L541.01,624.48C540.865,625.251 541.228,626.033 541.91,626.42Z" style="fill:rgb(99,102,97);fill-rule:nonzero;"/>
        </g>
        <g transform="matrix(1.2615,0,0,1.11216,-143.223,-88.7273)">
            <path d="M594.33,590.7L602.98,590.7C603.467,590.702 603.866,591.103 603.866,591.59C603.866,591.647 603.861,591.704 603.85,591.76L590.68,661.3C590.599,661.719 590.227,662.023 589.8,662.02L581.14,662.02C580.653,662.018 580.254,661.617 580.254,661.13C580.254,661.073 580.259,661.016 580.27,660.96L593.45,591.42C593.531,591.001 593.903,590.697 594.33,590.7Z" style="fill:rgb(99,102,97);fill-rule:nonzero;"/>
        </g>
        <g transform="matrix(1.2615,0,0,1.11216,-143.223,-88.7273)">
            <path d="M675.65,590.89L684.29,590.89C684.777,590.892 685.176,591.293 685.176,591.78C685.176,591.837 685.171,591.894 685.16,591.95L672,661.39C671.919,661.809 671.547,662.113 671.12,662.11L662.49,662.11C662.003,662.108 661.604,661.707 661.604,661.22C661.604,661.163 661.609,661.106 661.62,661.05L674.77,591.61C674.851,591.191 675.223,590.887 675.65,590.89Z" style="fill:rgb(99,102,97);fill-rule:nonzero;"/>
        </g>
        <g transform="matrix(1.2615,0,0,1.11216,-143.223,-88.7273)">
            <path d="M709.04,614.51C708.92,614.55 708.757,614.51 708.55,614.39C708.307,614.26 708.003,614.345 707.87,614.58L707.59,615.06C707.597,614.88 707.5,614.783 707.3,614.77C707.276,614.77 707.255,614.786 707.25,614.81L698.68,661.14C698.584,661.664 698.123,662.049 697.59,662.05L689.02,662.12C689.019,662.12 689.017,662.12 689.016,662.12C688.582,662.12 688.226,661.763 688.226,661.33C688.226,661.28 688.23,661.229 688.24,661.18L701.44,591.56C701.517,591.155 701.867,590.859 702.27,590.86L713.36,590.78C714.177,590.775 714.882,591.373 715.01,592.18L721.89,636.84C721.988,637.504 722.564,638.001 723.235,638.001C723.679,638.001 724.096,637.784 724.35,637.42C724.61,637.047 724.793,636.397 724.9,635.47C726.05,625.47 728.81,613 732.88,591.65C732.974,591.174 733.389,590.826 733.87,590.82L742.35,590.76C742.38,590.76 742.41,590.761 742.439,590.764C742.947,590.809 743.328,591.269 743.282,591.783C743.279,591.812 743.275,591.841 743.27,591.87L730.09,661.44C730.027,661.787 729.722,662.041 729.37,662.04L718.99,662.12C718.381,662.12 717.858,661.681 717.76,661.09C715.427,647.583 713.163,634.073 710.97,620.56C710.63,618.44 709.987,616.423 709.04,614.51Z" style="fill:rgb(99,102,97);fill-rule:nonzero;"/>
        </g>
        <g transform="matrix(1.2615,0,0,1.11216,-143.223,-88.7273)">
            <path d="M770.87,590.97L785.3,590.86C785.303,590.86 785.307,590.86 785.31,590.86C785.784,590.86 786.175,591.247 786.18,591.72L786.68,661.17C786.68,661.173 786.68,661.177 786.68,661.18C786.68,661.654 786.293,662.045 785.82,662.05L776.72,662.11C776.717,662.11 776.713,662.11 776.71,662.11C776.236,662.11 775.845,661.723 775.84,661.25L775.74,646.03C775.735,645.557 775.344,645.17 774.87,645.17C774.867,645.17 774.863,645.17 774.86,645.17L759.93,645.28C759.579,645.282 759.263,645.496 759.13,645.82L752.78,661.54C752.647,661.864 752.331,662.078 751.98,662.08L742.82,662.15C742.818,662.15 742.817,662.15 742.815,662.15C742.338,662.15 741.945,661.757 741.945,661.28C741.945,661.167 741.967,661.055 742.01,660.95L770.07,591.51C770.203,591.186 770.519,590.972 770.87,590.97ZM776.83,602.5C776.257,601.687 775.703,601.697 775.17,602.53C775.143,602.317 775.08,602.163 774.98,602.07C774.953,602.039 774.915,602.021 774.874,602.021C774.813,602.021 774.758,602.061 774.74,602.12L762.73,634.79C762.711,634.844 762.695,634.898 762.682,634.953C762.496,635.744 762.99,636.546 763.775,636.73C763.833,636.744 763.891,636.754 763.95,636.76C766.21,637.027 768.97,637.11 772.23,637.01C775.21,636.91 775.86,636.32 776.07,633.18C776.677,623.96 777.173,614.107 777.56,603.62C777.58,603.16 777.537,602.757 777.43,602.41C777.23,601.763 777.03,601.793 776.83,602.5Z" style="fill:rgb(99,102,97);fill-rule:nonzero;"/>
        </g>
        <g transform="matrix(1.2615,0,0,1.11216,-143.223,-88.7273)">
            <path d="M812.78,652.83L827.23,652.72C827.232,652.72 827.234,652.72 827.236,652.72C827.751,652.72 828.176,653.144 828.176,653.66C828.176,653.717 828.17,653.774 828.16,653.83L826.76,661.2C826.679,661.639 826.296,661.963 825.85,661.97L800.48,662.15C800.478,662.15 800.476,662.15 800.474,662.15C799.959,662.15 799.534,661.726 799.534,661.21C799.534,661.153 799.54,661.096 799.55,661.04L812.7,591.68C812.781,591.241 813.164,590.917 813.61,590.91L822.24,590.85C822.242,590.85 822.244,590.85 822.246,590.85C822.761,590.85 823.186,591.274 823.186,591.79C823.186,591.847 823.18,591.904 823.17,591.96L811.85,651.72C811.84,651.776 811.834,651.833 811.834,651.89C811.834,652.406 812.259,652.83 812.774,652.83C812.776,652.83 812.778,652.83 812.78,652.83Z" style="fill:rgb(99,102,97);fill-rule:nonzero;"/>
        </g>
        <g transform="matrix(1.2615,0,0,1.11216,-143.223,-88.7273)">
            <path d="M503.28,628.25C502.327,633.463 501.347,638.717 500.34,644.01C499.613,647.83 497.697,650.77 494.59,652.83C489.25,656.37 480.12,654.95 480.64,646.72C480.76,644.853 481.043,642.86 481.49,640.74C482.197,637.4 483.25,631.91 484.65,624.27C485.61,619.063 486.593,613.81 487.6,608.51C488.327,604.697 490.243,601.76 493.35,599.7C498.69,596.16 507.82,597.58 507.3,605.81C507.18,607.677 506.897,609.67 506.45,611.79C505.743,615.13 504.687,620.617 503.28,628.25ZM485.4,624.63C484.227,631.15 483.007,637.737 481.74,644.39C481.28,646.783 481.33,648.673 481.89,650.06C484.27,656 493.08,653.8 496.15,650.76C497.77,649.16 499.107,645.69 500.16,640.35C500.7,637.63 501.473,633.493 502.48,627.94C503.653,621.42 504.873,614.833 506.14,608.18C506.6,605.787 506.55,603.897 505.99,602.51C503.61,596.57 494.8,598.77 491.73,601.81C490.11,603.41 488.77,606.88 487.71,612.22C487.17,614.94 486.4,619.077 485.4,624.63Z" style="fill:rgb(19,19,15);fill-rule:nonzero;"/>
        </g>
        <g transform="matrix(1.2615,0,0,1.11216,-143.223,-88.7273)">
            <path d="M541.91,626.42C541.228,626.033 540.865,625.251 541.01,624.48L545.42,600.85C545.579,599.997 546.295,599.351 547.16,599.28C551.267,598.96 554.997,599.093 558.35,599.68C560.33,600.027 561.783,601.16 562.71,603.08C563.21,604.113 563.22,606.033 562.74,608.84C561.38,616.76 560.91,625.28 552.02,626.24C548.673,626.607 545.64,626.713 542.92,626.56C542.367,626.527 542.03,626.48 541.91,626.42ZM541.95,625.76C544.57,625.673 547.073,625.61 549.46,625.57C555.39,625.47 558.67,623.76 560.04,617.91C561.36,612.237 562.087,608.13 562.22,605.59C562.373,602.69 560.983,600.97 558.05,600.43C555.203,599.903 551.59,599.75 547.21,599.97C546.76,599.994 546.382,600.322 546.3,600.76L541.63,625.39C541.628,625.402 541.626,625.414 541.625,625.425C541.612,625.595 541.745,625.746 541.92,625.759C541.93,625.76 541.94,625.76 541.95,625.76Z" style="fill:rgb(19,19,15);fill-rule:nonzero;"/>
        </g>
        <g transform="matrix(1.2615,0,0,1.11216,-143.223,-88.7273)">
            <path d="M775.17,602.53L763.4,635.43C763.379,635.488 763.368,635.549 763.368,635.61C763.368,635.895 763.603,636.13 763.888,636.13C763.889,636.13 763.889,636.13 763.89,636.13L773.82,636.13C774.568,636.131 775.193,635.537 775.23,634.79L776.83,602.5C777.03,601.793 777.23,601.763 777.43,602.41C777.537,602.757 777.58,603.16 777.56,603.62C777.173,614.107 776.677,623.96 776.07,633.18C775.86,636.32 775.21,636.91 772.23,637.01C768.97,637.11 766.21,637.027 763.95,636.76C763.891,636.754 763.833,636.744 763.775,636.73C762.99,636.546 762.496,635.744 762.682,634.953C762.695,634.898 762.711,634.844 762.73,634.79L774.74,602.12C774.758,602.061 774.813,602.021 774.874,602.021C774.915,602.021 774.953,602.039 774.98,602.07C775.08,602.163 775.143,602.317 775.17,602.53Z" style="fill:rgb(19,19,15);fill-rule:nonzero;"/>
        </g>
    </g>
</svg>
