<?xml version="1.0" encoding="UTF-8" standalone="no"?>
<!DOCTYPE svg PUBLIC "-//W3C//DTD SVG 1.1//EN" "http://www.w3.org/Graphics/SVG/1.1/DTD/svg11.dtd">
<svg width="100%" height="100%" viewBox="0 0 444 440" version="1.1" xmlns="http://www.w3.org/2000/svg" xmlns:xlink="http://www.w3.org/1999/xlink" xml:space="preserve" xmlns:serif="http://www.serif.com/" style="fill-rule:evenodd;clip-rule:evenodd;stroke-linejoin:round;stroke-miterlimit:2;">
    <path d="M149.39,191.86C149.305,191.775 149.19,191.726 149.07,191.726C148.825,191.726 148.623,191.926 148.62,192.17C148.6,197.31 146.77,202.76 145.88,207.48C145.687,208.513 146.193,209.72 147.4,211.1C147.84,211.6 160.07,223.847 184.09,247.84C184.288,248.044 184.564,248.153 184.85,248.14C187.003,248.027 189.643,247.573 192.77,246.78C202.797,244.233 217.143,240.573 235.81,235.8C241.52,234.34 243.98,236.41 248.17,240.62C261.49,254.007 275.673,268.187 290.72,283.16C295.92,288.34 293.35,296.25 286.66,298.4C268.007,304.387 249.893,310.03 232.32,315.33C230.887,315.757 229.59,316.54 228.43,317.68C218.65,327.313 208.303,337.663 197.39,348.73C196.835,349.299 196.698,350.157 197.05,350.86C202.19,361.033 200.87,370.2 193.09,378.36C189.62,381.99 184.77,387.37 180.59,389.39C173.983,392.57 167.61,392.783 161.47,390.03C158.957,388.903 155.007,385.64 149.62,380.24C100.027,330.52 70.877,301.39 62.17,292.85C54.08,284.91 48.9,279.59 49.73,269.07C50.38,260.81 55.4,256.15 61.38,250.14C64.12,247.393 66.483,245.447 68.47,244.3C75.243,240.393 82.427,240.36 90.02,244.2C90.506,244.451 91.104,244.353 91.49,243.96C100.71,234.513 111.013,224.233 122.4,213.12C125.9,209.7 128.043,205.92 128.83,201.78C131.01,190.28 134.623,172.667 139.67,148.94C140.223,146.307 140.933,142.19 141.8,136.59C142.13,134.46 145.31,130.12 146.89,127.27C149.33,122.883 157.51,107.857 171.43,82.19C177.33,71.31 187.19,65.21 199.29,67.56C210.33,69.7 217.48,77.94 219.43,88.95C220.39,94.39 218.1,103.84 217.01,108.01C216.69,109.25 216.593,110.33 216.72,111.25C216.728,111.316 216.755,111.379 216.796,111.431C216.922,111.589 217.16,111.613 217.324,111.484C217.375,111.443 217.415,111.39 217.44,111.33C218.65,108.23 224.61,104.15 227.42,101.32C249.68,78.98 263.793,64.883 269.76,59.03C283.55,45.51 305.5,47.32 316.19,63.7C317,64.93 317.82,67.22 318.49,68.09C318.696,68.358 319.062,68.449 319.37,68.31C320.257,67.93 321.173,67.477 322.12,66.95C331.01,62.06 341.95,62.82 350.22,67.66C358.673,72.6 363.497,79.997 364.69,89.85C365.44,96.07 363.8,103.58 360.23,108.65C360.224,108.659 360.217,108.669 360.211,108.678C359.95,109.084 360.065,109.631 360.466,109.889C360.477,109.896 360.488,109.903 360.5,109.91C363.76,111.823 365.41,112.79 365.45,112.81C369.97,115.58 373.96,120.26 375.98,124.8C381.06,136.25 378.73,148.72 370.57,158.36C370.504,158.436 370.468,158.534 370.468,158.635C370.468,158.802 370.567,158.953 370.72,159.02C391.24,167.7 393.79,193.26 378.62,208.37C350.567,236.31 334.07,252.893 329.13,258.12C326.63,260.76 325.373,262.09 325.36,262.11C321.653,265.57 317.347,269.66 312.44,274.38C309.713,277.007 306.783,277.897 303.65,277.05C297,275.26 294.86,267.63 299.17,262.58C300.997,260.433 302.98,258.353 305.12,256.34C305.123,256.337 305.127,256.334 305.13,256.331C305.396,256.077 305.403,255.646 305.146,255.376C305.144,255.374 305.142,255.372 305.14,255.37C296.37,246.52 286.24,236.82 278.76,229.17C269.047,219.237 263.277,213.407 261.45,211.68C256.203,206.707 252.467,203.037 250.24,200.67C244.16,194.21 235.393,185.513 223.94,174.58C222.893,173.58 222.29,172.187 222.13,170.4C221.11,158.787 220.233,147.13 219.5,135.43C219.497,135.38 219.484,135.331 219.462,135.287C219.367,135.089 219.122,135.006 218.919,135.104C218.875,135.125 218.834,135.155 218.8,135.19C215.447,138.81 212.34,141.99 209.48,144.73C208.147,146.01 206.963,146.937 205.93,147.51C201.99,149.71 197.34,148.49 194.61,145C192.38,142.15 192.85,138.29 193.58,134.56C196.013,122.28 198.713,108.517 201.68,93.27C202.72,87.92 196.19,83.04 191.33,85.87C189.923,86.697 188.56,88.33 187.24,90.77C179.647,104.857 171.437,119.94 162.61,136.02C162.308,136.575 162.406,137.266 162.85,137.71C178.023,152.863 191.31,166.14 202.71,177.54C208.67,183.5 212.31,189.25 212.08,197.3C211.69,210.47 201.77,220.37 188.74,220.76C182.06,220.96 176.03,218.4 170.65,213.08C163.45,205.947 156.363,198.873 149.39,191.86ZM238.62,148.16C238.753,148.133 238.953,147.987 239.22,147.72C268.327,118.68 286.647,100.333 294.18,92.68C294.753,92.1 296.707,89.967 300.04,86.28C302.7,83.327 303.403,79.847 302.15,75.84C299.11,66.17 287.97,66.28 281.73,72.49C257.097,97.043 242.597,111.537 238.23,115.97C236.683,117.537 236,119.223 236.18,121.03C237.007,129.317 237.667,136.99 238.16,144.05C238.247,145.33 238.223,146.537 238.09,147.67C238.088,147.686 238.087,147.702 238.087,147.718C238.087,147.964 238.291,148.168 238.537,148.168C238.565,148.168 238.593,148.165 238.62,148.16ZM244.31,169.23L259.67,184.53C259.956,184.813 260.424,184.813 260.71,184.53L342.81,102.14C347.745,97.187 348.137,89.456 343.68,85.01L343.54,84.87C339.079,80.426 331.346,80.846 326.41,85.8L244.31,168.18C244.17,168.319 244.092,168.508 244.092,168.705C244.092,168.902 244.17,169.091 244.31,169.23ZM273.41,198.25L288.73,213.57C288.874,213.715 289.071,213.796 289.275,213.796C289.479,213.796 289.676,213.715 289.82,213.57L356.46,146.93C361.592,141.798 362.202,133.962 357.811,129.571L357.409,129.169C353.018,124.778 345.182,125.388 340.05,130.52L273.41,197.16C273.265,197.304 273.184,197.501 273.184,197.705C273.184,197.909 273.265,198.106 273.41,198.25ZM156.62,157.2C155.82,159.613 155.103,162.463 154.47,165.75C153.75,169.46 153.16,170.26 155.87,172.93C166.243,183.163 174.68,191.59 181.18,198.21C185.22,202.32 189.64,205.4 193.51,199.54C195.42,196.65 193.22,193.47 191.09,191.4C189.07,189.427 177.68,178.003 156.92,157.13C156.886,157.095 156.84,157.076 156.791,157.076C156.713,157.076 156.644,157.126 156.62,157.2ZM303.55,228.32L316.86,241.63C317.697,242.465 319.073,242.465 319.91,241.63L366.3,195.25C366.3,195.25 366.301,195.249 366.301,195.249C371.328,190.222 371.9,182.52 367.567,178.187C367.564,178.184 367.562,178.182 367.56,178.18L367,177.62C366.998,177.618 366.996,177.616 366.993,177.613C362.66,173.28 354.958,173.852 349.931,178.879C349.931,178.879 349.93,178.88 349.93,178.88L303.55,225.27C302.715,226.107 302.715,227.483 303.55,228.32ZM184.22,336.51C194.18,326.33 205.33,315.133 217.67,302.92C219.497,301.107 221.32,299.917 223.14,299.35C244.987,292.53 259.357,288.09 266.25,286.03C266.32,286.009 266.386,285.98 266.449,285.943C266.858,285.698 266.991,285.155 266.743,284.741C266.706,284.679 266.661,284.621 266.61,284.57L237.03,254.99C236.53,254.49 235.803,254.295 235.13,254.48C224.837,257.24 207.877,261.507 184.25,267.28C180.817,268.12 177.723,267.13 174.97,264.31C172.55,261.823 159.537,248.78 135.93,225.18C135.872,225.121 135.793,225.088 135.71,225.088C135.627,225.088 135.548,225.121 135.49,225.18L104.65,256.03C104.421,256.252 104.39,256.613 104.58,256.87C105.56,258.237 106.47,259.343 107.31,260.19C131.05,284.063 156.493,309.507 183.64,336.52C183.642,336.522 183.643,336.523 183.645,336.525C183.801,336.679 184.06,336.673 184.217,336.513C184.218,336.512 184.219,336.511 184.22,336.51ZM81.807,260.254C80.434,258.88 78.174,258.88 76.801,260.254L68.514,268.541C67.14,269.914 67.14,272.174 68.514,273.547L167.933,372.966C169.306,374.34 171.566,374.34 172.939,372.966L181.226,364.679C182.6,363.306 182.6,361.046 181.226,359.673L81.807,260.254Z" style="fill-rule:nonzero;"/>
</svg>
