<?xml version="1.0" encoding="UTF-8" standalone="no"?>
<!DOCTYPE svg PUBLIC "-//W3C//DTD SVG 1.1//EN" "http://www.w3.org/Graphics/SVG/1.1/DTD/svg11.dtd">
<svg width="100%" height="100%" viewBox="0 0 256 256" version="1.1" xmlns="http://www.w3.org/2000/svg" xmlns:xlink="http://www.w3.org/1999/xlink" xml:space="preserve" xmlns:serif="http://www.serif.com/" style="fill-rule:evenodd;clip-rule:evenodd;stroke-linecap:round;stroke-linejoin:round;">
    <rect x="0" y="0" width="256" height="256" style="fill:none;"/>
    <path d="M160,128L112,96L112,160L160,128Z" style="fill:none;fill-rule:nonzero;stroke:black;stroke-width:16px;"/>
    <path d="M24,128C24,157.8 27.1,175.2 29.4,184.2C30.685,189.148 34.253,193.2 39,195.1C72.5,207.9 128,207.6 128,207.6C128,207.6 183.5,207.9 217,195.1C221.747,193.2 225.315,189.148 226.6,184.2C228.9,175.2 232,157.8 232,128C232,98.2 228.9,80.8 226.6,71.8C225.315,66.852 221.747,62.8 217,60.9C183.5,48.1 128,48.4 128,48.4C128,48.4 72.5,48.1 39,60.9C34.253,62.8 30.685,66.852 29.4,71.8C27.1,80.8 24,98.2 24,128Z" style="fill:none;fill-rule:nonzero;stroke:black;stroke-width:16px;"/>
</svg>
